<?xml version="1.0" encoding="UTF-8"?>
<svg width="71px" height="72px" viewBox="0 0 71 72" version="1.1" xmlns="http://www.w3.org/2000/svg" xmlns:xlink="http://www.w3.org/1999/xlink">
    <title>编组 14</title>
    <defs>
        <filter id="filter-1">
            <feColorMatrix in="SourceGraphic" type="matrix" values="0 0 0 0 0.074510 0 0 0 0 0.686275 0 0 0 0 0.764706 0 0 0 1.000000 0"></feColorMatrix>
        </filter>
    </defs>
    <g id="页面-1" stroke="none" stroke-width="1" fill="none" fill-rule="evenodd">
        <g id="地图页" transform="translate(-657.000000, -1140.000000)">
            <g id="编组-14" transform="translate(657.000000, 1140.185582)">
                <rect id="矩形" fill="#FFFFFF" x="0" y="0" width="71" height="71" rx="18.9883721"></rect>
                <g filter="url(#filter-1)" id="编组-47备份-2">
                    <g transform="translate(13.500000, 16.900641)">
                        <path d="M40.0941543,37.1162842 L28.0987445,37.1162842 C28.0987445,35.8852459 28.108362,34.6974863 28.0963401,33.5073224 C28.0650833,29.900765 25.4587445,27.0996721 22.1310942,27.0804372 C18.6375423,27.0612022 15.9903292,29.8598907 15.9831161,33.5794536 C15.9807117,34.7335519 15.9831161,35.8876503 15.9831161,37.0994536 L3.98770625,37.0994536 L3.98770625,31.6703825 C3.98770625,30.3046995 3.94442757,28.9390164 3.99732374,27.5757377 C4.06705052,25.8085246 4.06705052,24.3298361 2.20606691,23.1012022 C0.436449424,21.935082 -0.118960412,19.7687432 0.0204931395,17.7995628 C1.50879915,17.8644809 2.90333467,18.124153 4.22333467,17.9149727 C5.22355325,17.7562842 6.43054778,17.2225137 7.01000134,16.4531148 C8.02705052,15.1066667 9.22683194,15.063388 10.6622418,15.0706011 C18.6928429,15.109071 26.723444,15.0970492 34.7540451,15.0754098 C35.4945915,15.0730055 35.9730614,15.2557377 36.4539358,15.8880874 C38.1297828,18.0832787 40.6639904,18.602623 43.8401653,17.535082 C44.4220232,19.7086339 43.1813675,22.5169399 40.9020232,23.9427322 C40.2624604,24.3442623 40.0701106,24.7602186 40.0749194,25.4767213 C40.1133893,29.3237158 40.0941543,33.1707104 40.0941543,37.1162842 L40.0941543,37.1162842 Z" id="路径" fill="#107987" fill-rule="nonzero"></path>
                        <path d="M3.10530188,5.79934426 C7.51972811,6.64087432 11.0277063,4.11147541 11.9461762,0 L32.0202746,0 C33.2032254,4.7895082 37.1055205,6.55912568 40.8851926,5.78491803 C40.7337172,8.04983607 39.5892363,9.72087432 37.7715314,10.7571585 C36.6030068,11.4231694 35.1387445,11.8751913 33.7995095,11.8920219 C26.0069412,11.9954098 18.2119685,11.9545355 10.4169959,11.9377049 C6.41612155,11.9280874 3.45153139,9.44677596 3.10530188,5.79934426 Z" id="路径" fill="#107987" fill-rule="nonzero"></path>
                    </g>
                </g>
            </g>
        </g>
    </g>
</svg>