<?xml version="1.0" encoding="UTF-8"?>
<svg width="224px" height="224px" viewBox="0 0 224 224" version="1.1" xmlns="http://www.w3.org/2000/svg" xmlns:xlink="http://www.w3.org/1999/xlink">
    <title>编组 68</title>
    <defs>
        <linearGradient x1="50%" y1="0%" x2="50%" y2="100%" id="linearGradient-1">
            <stop stop-color="#B3FFB0" offset="0%"></stop>
            <stop stop-color="#0E944F" offset="100%"></stop>
        </linearGradient>
    </defs>
    <g id="页面-1" stroke="none" stroke-width="1" fill="none" fill-rule="evenodd">
        <g id="编组-68" transform="translate(0.043478, 0.500000)">
            <circle id="椭圆形" fill="url(#linearGradient-1)" cx="111.5" cy="111.5" r="111.5"></circle>
            <path d="M130.499646,104.921569 L130.499354,127.921569 L136.998354,127.921569 L136.998646,125.921569 C136.998208,124.323888 138.246991,123.017786 139.821789,122.926386 L139.998061,122.921276 C139.998159,122.921276 139.998256,122.921276 139.998354,122.921569 L142.249354,122.921569 C143.906094,122.921861 145.249192,124.264829 145.249646,125.921569 L145.250354,133.171569 C145.250354,150.285428 132.512451,164.424191 116.000314,166.624189 L115.999354,171.921569 L132.499854,171.921569 C134.156708,171.921569 135.499854,173.264715 135.499854,174.921569 L135.499854,176.921569 C135.499854,178.578423 134.156708,179.921569 132.499854,179.921569 L90.4998537,179.921569 C88.8429995,179.921569 87.4998537,178.578423 87.4998537,176.921569 L87.4998537,174.921569 C87.4998537,173.264715 88.8429995,171.921569 90.4998537,171.921569 L107.999354,171.921569 L107.999568,166.742202 C91.004942,164.990799 77.7503537,150.629071 77.7503537,133.171569 L77.7496464,125.921569 C77.7492083,124.323888 78.9979908,123.017786 80.5727888,122.926386 L80.749061,122.921276 C80.7491586,122.921276 80.7492562,122.921276 80.7493537,122.921569 L82.4993537,122.921569 C84.1560937,122.921861 85.4991921,124.264829 85.4996464,125.921569 L85.4993537,127.921569 L92.4993537,127.921569 L92.4996463,104.921569 L130.499646,104.921569 Z M92.4993537,131.921569 L85.4993537,131.921569 L85.5003537,133.172069 C85.5003537,147.250914 96.7993815,158.690731 110.824039,158.918119 L111.249854,158.921569 C125.328699,158.921569 136.768516,147.622541 136.995904,133.597884 L136.999354,133.172069 L136.999354,131.921569 L130.499354,131.921569 L130.499854,133.421569 C130.499854,143.914979 121.993264,152.421569 111.499854,152.421569 C101.006443,152.421569 92.4998537,143.914979 92.4998537,133.421569 L92.4993537,131.921569 Z M130.499646,98.9215688 L130.499646,100.921569 L92.4996463,100.921569 L92.4996463,98.9215688 L130.499646,98.9215688 Z M111.499854,69.4215688 C121.993264,69.4215688 130.499854,77.9281585 130.499854,88.4215688 L130.499646,94.9215688 L92.4996463,94.9215688 L92.4998537,88.4215688 C92.4998537,77.9281585 101.006443,69.4215688 111.499854,69.4215688 Z M111.533649,54.5038991 C116.982813,54.5038991 121.781877,57.3969962 124.586653,61.7860261 L124.567078,61.8010703 C124.880504,62.2072452 125.067995,62.7229194 125.067995,63.2841103 C125.067995,64.5941751 124.046244,65.6561924 122.785851,65.6561924 C122.016953,65.6561924 121.336868,65.2609566 120.923385,64.6552822 L120.906987,64.6680833 C118.949479,61.4314643 115.483256,59.2802863 111.533649,59.2802863 C107.609165,59.2802863 104.161935,61.4041845 102.197848,64.6064519 L102.171209,64.6527663 L102.143025,64.6980831 C102.118365,64.7378072 102.09444,64.7781851 102.07075,64.8187274 L102.064429,64.8133087 C101.645152,65.3910977 100.97916,65.7645939 100.22924,65.7645939 C98.9605124,65.7645939 97.9320052,64.6955539 97.9320052,63.3768263 C97.9320052,62.8371767 98.1042399,62.3393401 98.3946894,61.9394652 L98.3873099,61.9338135 C101.17818,57.4620564 106.023555,54.5038991 111.533649,54.5038991 Z M111.547348,43.0784312 C119.215045,43.0784312 125.967967,46.9950515 129.914658,52.9368376 L129.887114,52.9572041 C130.328145,53.5070761 130.652239,54.2055354 130.59197,54.9649158 C130.456522,56.6715688 128.915582,57.4594009 127.955242,57.4594009 C126.994902,57.4594009 125.91761,57.136506 125.335786,56.3165553 L125.312711,56.3338852 C122.558237,51.9522114 117.014144,48.1715688 111.456522,48.1715688 C105.934251,48.1715688 100.407991,51.5563607 97.6442601,55.89153 L97.6067754,55.9542295 L97.5671168,56.0155785 C97.5324163,56.0693563 97.4987514,56.1240192 97.4654162,56.1789045 L97.4565217,56.1715688 C96.8665433,56.9537687 95.8358694,57.6230865 94.8741674,57.4594009 C93.6868824,57.2573201 92.5612924,56.5038991 92.4080297,55.0904329 C92.3288803,54.3604771 92.6503868,53.6859037 93.0590879,53.1445606 L93.0487039,53.1369094 C96.9758284,47.0831288 103.793915,43.0784312 111.547348,43.0784312 Z" id="形状结合" fill="#FFFFFF"></path>
        </g>
    </g>
</svg>