<?xml version="1.0" standalone="no"?>
<!DOCTYPE svg PUBLIC "-//W3C//DTD SVG 1.1//EN" "http://www.w3.org/Graphics/SVG/1.1/DTD/svg11.dtd" >
<svg xmlns="http://www.w3.org/2000/svg">
<metadata>Generated by IcoMoon</metadata>
<defs>
<font id="icomoon_guobo" horiz-adv-x="1024">
<font-face units-per-em="1024" ascent="960" descent="-64" />
<missing-glyph horiz-adv-x="1024" />
<glyph unicode="&#x20;" horiz-adv-x="512" d="" />
<glyph unicode="&#xe600;" glyph-name="xialouti" d="M752.224 639.008c38.016-5.952 67.648 8.16 99.328 0 11.872-3.072 31.968-25.888 43.328-36.16 41.952-38.080 83.424-78.144 124.576-112.384-54.336-53.152-109.76-105.088-166.112-156.096-33.664 0-67.328 0-101.088 0-3.936 5.952 5.856 9.76 9.056 13.312 28.576 31.52 64.832 68.576 93.888 100.864-138.4 0-276.832 0-415.328 0 0 25.408 0 50.816 0 76.192 137.888 0 275.712 0 413.472 0-27.968 36.576-70.368 74.336-101.12 114.272zM104.416 417.28c2.24-28.352 1.632-59.52 1.632-90.080 57.888 0 115.744 0 173.664 0 4.16-23.168-1.024-55.648 3.264-78.656 53.888-3.616 113.536 1.152 168.736 1.664 2.688-24.064 1.344-52.192 1.632-78.624 56.352-3.936 117.952 1.024 175.232 1.632 2.464-24.832 1.504-53.12 1.664-80.288-85.92-0.896-170.176-3.424-255.52-4.896-4 25.504 0.512 59.456-3.296 85.184-54.4-1.824-109.376-3.104-165.44-3.296 0.192 28.608-1.088 55.712-3.296 81.92-55.936-2.496-113.28-3.552-172-3.296 0 27.84 0.64 56.32-1.632 81.92-29.888 0.96 1.12-1.696-29.056-0.448 0 28.672 0 57.28 0 87.296 61.888-0.192 44-1.344 104.416-0.032zM313.312 935.008c3.84 0 7.744 0 11.584 0 18.592-4.032 28-10.208 34.816-18.24 38.304-45.152-25.312-109.28-74.592-72.928-32.448 23.904-18.912 88.992 28.192 91.168zM530.144 588.576c0-2.752 0-5.536 0-8.288-8.192-19.008-36.064-21.44-53.024-14.912-34.72 13.408-51.136 68.576-84.544 81.248-2.944-74.944-1.664-188.672-1.664-278.464 0-58.368 10.912-109.44-41.44-112.704-3.872 0-7.744 0-11.584 0-50.912 11.584-22.816 92.064-29.856 147.52-32.672-2.528-77.184-44.512-114.368-48.064-18.144-1.76-38.176 3.648-44.736 21.536 0 2.784 0 5.536 0 8.288 18.592 32.832 54.848 42.624 94.464 63.008 18.72 9.6 68.32 27.424 67.968 49.728-0.288 17.664-28.672 31.168-34.816 36.48-12.832 11.104-26.432 26.656-33.152 38.112-18.112 31.008-14.4 85.632-11.584 134.176 1.472 24.96-1.696 54.528 4.96 74.592 18.912 56.768 147.104 48.192 160.768-9.952 3.136-13.28-4.832-28.096-1.632-41.408 2.208-9.216 20.544-22.208 29.824-31.488 37.6-37.632 75.2-70.88 104.416-109.408z" />
<glyph unicode="&#xe601;" glyph-name="coffee" d="M199.284 631.88h58.89c22.674 54.388 4.564 126.912-9.038 172.26s0.15 113.368 0.15 113.368h-68.14c-4.564-55.858 15.106-121.688 18.14-131.476 27.208-81.626 0-154.15 0-154.15zM841.174 551.998h-86.64c0 18.98 0 37.99 0 57h-626.812v-492.332c5.346-25.076 19.79-41.052 43.336-47.87 176.252 0 352.506 0 528.76 0 45.048 16.698 36.458 1.712 54.688 50.122 0 7.148 0 14.326 0 21.442l38.83 2.552 50.092 3.394c63.786 2.222 75.198 61.444 75.198 61.444v257.638c-4.504 72.946-77.452 86.61-77.452 86.61zM800.15 221.534l-6.788 0.21-38.83 1.052c0 80.874 0 161.748 0 242.622h47.87c18.23 0 29.61-25.046 29.61-25.046v-182.38c2.282-25.046-31.864-36.458-31.864-36.458zM155.080-31.51c0 0 485.486-2.222 547.048 0 61.564 2.312 82.044 75.258 82.044 75.258l-695.164-2.252c-6.818-43.336 66.070-73.006 66.070-73.006zM334.036 631.88h58.92c22.644 54.388 4.536 126.912-9.070 172.26s0.15 113.368 0.15 113.368h-68.17c-4.564-55.858 15.136-121.688 18.14-131.476 27.208-81.626 0.030-154.15 0.030-154.15zM468.786 631.88h58.92c22.674 54.388 4.534 126.912-9.1 172.26-13.574 45.346 0.15 113.368 0.15 113.368h-68.142c-4.564-55.858 15.106-121.688 18.14-131.476 27.238-81.626 0.030-154.15 0.030-154.15zM603.534 631.88h58.952c22.644 54.388 4.534 126.912-9.1 172.26-13.604 45.346 0.18 113.368 0.18 113.368h-68.202c-4.534-55.858 15.136-121.688 18.14-131.476 27.208-81.626 0.030-154.15 0.030-154.15z" />
<glyph unicode="&#xe602;" glyph-name="xindiantu" d="M965.12 881.504h-914.528c-29.216 0-52.896-23.68-52.896-52.864v-709.536c0-29.152 23.712-52.8 52.896-52.8h61.216v-51.744h140.672v51.744h507.872v-51.744h140.736v51.744h64.032c29.248 0 52.832 23.648 52.832 52.8v709.536c0.032 29.184-23.584 52.864-52.832 52.864zM75.744 825.216h866.112c5.28 0 9.6-4.864 9.6-10.912v-382.272h-252.416l-96.192 120.704-61.408-134.656-87.040 254.4-71.2-253.824-6.752 13.344h-310.304v382.272c-0.032 6.048 4.288 10.944 9.6 10.944zM941.856 129.12h-866.112c-5.312 0-9.6 4.896-9.6 11.008v263.36h292.768l31.936-63.104 66.272 236.16 80.576-235.552 71.84 157.6 75.776-95.136h266.112v-263.36c0-6.080-4.256-10.976-9.568-10.976z" />
<glyph unicode="&#xe603;" glyph-name="dingwei" d="M468.192 950.912c29.216 0 58.464 0 87.648 0 267.968-42.016 422.784-197.184 464.96-464.96 0-29.216 0-58.432 0-87.616-42.080-267.936-197.056-422.912-464.96-464.992-29.184 0-58.432 0-87.648 0-267.904 42.080-422.88 197.088-464.96 464.992 0 29.184 0 58.4 0 87.616 42.208 267.776 196.992 422.976 464.96 464.96zM109.92 493.568c48.32-2.528 106.688 5.088 148.64-3.808 0-33.024 0-66.048 0-99.008-49.536 0-99.104 0-148.64 0 34.528-199.328 151.36-316.16 350.656-350.656 2.496 48.256-5.088 106.656 3.776 148.608 33.056 0 66.048 0 99.072 0 0-49.536 0-99.072 0-148.608 199.328 34.496 316.128 151.328 350.656 350.656-48.288 2.464-106.688-5.12-148.64 3.744 0 33.024 0 66.048 0 99.072 49.536 0 99.072 0 148.64 0-34.336 199.424-151.456 316.032-350.656 350.656-2.464-48.32 5.12-106.688-3.776-148.64-32.992 0-66.080 0-99.072 0-4.96 47.168 9.92 114.112-7.616 148.64-192.352-38.88-310.016-152.448-343.040-350.656z" />
<glyph unicode="&#xe604;" glyph-name="fangshe" d="M105.088 69.504c43.872 0 79.616 35.264 79.616 78.528s-35.744 78.528-79.616 78.528c-43.84 0-79.616-35.296-79.616-78.528-0.032-43.296 35.776-78.528 79.616-78.528zM1003.52 44.032h-982.016c-11.808 0-21.504-11.2-21.504-24.832v-52.16c0-13.696 9.696-24.864 21.504-24.864h982.016c11.84 0 21.568 11.2 21.568 24.864v52.16c0 13.632-9.728 24.832-21.568 24.832zM282.208 61.952h193.312c4.448-1.088 9.088-1.92 13.952-1.92h443.744c29.792 0 54.112 22.528 54.112 50.080s-24.32 50.112-54.112 50.112h-334.112c-7.232 66.24-53.472 71.36-95.52 71.36l-221.344-8.96c-45.728 0-83.136-36.16-83.136-80.32v-0.064c0-44.16 37.408-80.288 83.104-80.288zM634.848 250.624l42.24 15.008-51.168 140.48 38.848 4.032-59.68 172.832-42.912-11.904 42.304-120.768-42.304-3.328zM421.408 582.976l-59.648-172.832 38.88-4.032-51.232-140.48 42.272-15.008 72.64 196.352-42.272 3.328 42.272 120.768zM327.776 621.504l361.28-2.912c42.88 0.768 84.416 67.488 31.52 121.408l-101.408 124.288 2.976 68.576h-218.24c-3.712-20.64-2.304-41.28 4.224-61.952l-128.064-163.264c-9.568-40.736 1.568-79.040 47.712-86.144zM310.336 697.056l121.984 153.152c10.016 9.504 8.864 29.28 1.44 51.584h153.92c-1.888-29.376-4.256-48.672 9.216-62.688l94.88-111.264c35.648-41.632 22.304-66.976-5.184-78.208l-342.72 2.304c-22.944 1.984-37.632 1.44-33.536 45.12zM497.632 746.976l-35.104-60.736c30.752-19.36 67.968-18.336 93.184-4.736l-38.4 66.56c4.736 3.968 6.688 7.872 6.56 11.744h75.648c-2.4 42.016-19.008 68.32-43.808 83.072l-38.752-68.416c0.992 1.792-11.296 5.28-12.768 2.912l-33.632 60.032c-29.12-11.072-49.184-43.712-51.488-77.248l71.2-0.704c0.032-4.16 2.464-8.32 7.36-12.48zM492.576 759.968l12.768-0.224-5.76-10.784c-5.024 2.88-6.592 6.816-7.008 11.008zM553.184 682.24c-30.656-12.032-60.096-10.752-86.88 4.672l41.44 71.616 45.44-76.288zM515.968 749.824l-6.176 10.368h11.744c-0.16-4.224-1.6-7.424-5.568-10.368zM556.672 839.488c24.384-17.376 37.472-42.752 39.424-76.832l-82.016 0.096 42.592 76.736zM516.48 772.416l-4.48-8.832-6.784 11.968c3.904 0.928 7.584-0.192 11.264-3.136zM469.12 834.016l41.248-71.68-88.768-0.384c3.712 33.344 19.488 57.344 47.52 72.064z" />
<glyph unicode="&#xe605;" glyph-name="escalator" d="M270.392 227.9c-7.538-7.508-14.564-10.030-26.128-10.030-11.050 0-51.234-0.15-75.618-0.15-66.94 0-121.176-54.448-121.176-121.658 0-67.18 54.356-121.688 121.266-121.688 8.318 0 127.932 0 140.998 0 34.476 0 67.060 15.166 86.13 34.356 21.592 21.682 377.584 359.204 383.83 365.54 7.568 7.538 14.596 10.15 26.188 10.15h75.558c66.91 0 121.236 54.538 121.236 121.748 0 67.15-54.418 121.628-121.296 121.628-8.318 0-127.962 0-140.998 0-34.476 0-67.030-15.166-86.13-34.326 0 0-377.584-359.204-383.858-365.57zM348.174 48.554c-7.538-7.538-24.866-13.334-36.398-13.334-11.082 0-118.682-0.090-143.038-0.090-33.546 0-60.814 27.238-60.814 60.932 0 33.726 27.208 60.994 60.754 60.994h82.616c23.786 0 48.8 12.974 62.556 26.728 21.592 21.744 381.818 363.528 388.124 369.834 7.538 7.568 24.836 13.364 36.428 13.364 10.99 0 118.562 0.15 143.010 0.15 33.514 0 60.842-27.328 60.842-60.992 0-33.694-27.238-61.024-60.784-61.024h-82.616c-23.754 0-48.802-13.004-62.554-26.758-21.592-21.654-381.846-363.528-388.124-369.806zM578.722 839.246c0-45.828-37.15-82.976-82.976-82.976s-82.976 37.15-82.976 82.976c0 45.798 37.15 82.976 82.976 82.976 45.828 0.030 82.976-37.178 82.976-82.976zM569.864 544.25c9.28 9.28 9.52 21.202 9.52 38.59v17.328c0 67.66-35.106 122.496-78.442 122.496h-76.82c-43.334 0-78.472-54.836-78.472-122.496v-17.328c0-53.546-15.436-128.924 10.842-177.696 26.248-48.74 204.062 129.826 213.372 139.106z" />
<glyph unicode="&#xe606;" glyph-name="guahao" d="M306.112 660.032c44.256 0 80.128 35.904 80.128 80.16 0 44.288-35.872 80.128-80.128 80.128s-80.128-35.872-80.128-80.128c0-44.256 35.872-80.16 80.128-80.16zM769.728 688.192c45.312 0 82.016 36.704 82.016 81.984 0 45.344-36.704 82.048-82.016 82.048s-82.016-36.736-82.016-82.048c0-45.28 36.704-81.984 82.016-81.984zM1026.816 311.968l-111.552-0.224c2.464 50.4 1.088 118.272 1.088 157.984v34.528c0 84.864-44.096 153.632-98.432 153.632h-96.416c-54.368 0-98.432-68.736-98.432-153.632v-34.528c0-39.872-1.44-108.128 1.12-158.656l-111.648-0.256c-21.696 24.544-49.536 45.088-81.728 60.064 0.032 9.824 0 19.648-0.032 29.216 3.296-1.28 6.848-1.984 10.592-1.984 9.76 0 18.432 4.64 23.904 11.904 33.344 44.064 81.984 102.336 90.112 112.48 8.832 10.912 8.928 26.016 1.312 37.088l44.672 0.032v154.304h-72.416v-141.536c-7.872-0.992-15.392-5.248-20.928-12.096-4.128-5.12-25.536-31.008-54.048-65.728-4.704 16.16-9.344 32.32-13.792 47.392-8.768 29.344-36.192 59.104-67.072 69.088-9.184 5.152-19.008 8.064-29.344 8.064h-84.864c-47.904 0-86.688-60.544-86.688-135.296v-30.4c0-22.176-0.512-54.4-0.32-86.304-29.376-14.784-54.88-34.272-75.008-57.248l-87.104-0.224v-88.832h681.504v-200.128c0-20.96 12.032-37.984 26.944-37.984h9.12c14.912 0 26.944 16.992 26.944 37.984v200.128h30.784v-200.128c0-20.96 12.032-37.984 26.944-37.984h9.12c14.912 0 26.976 16.992 26.976 37.984v200.128h178.688v91.168z" />
<glyph unicode="&#xe607;" glyph-name="blood" d="M993.152 413.952c16.736-30.112 27.232-57.088 27.232-91.872 0-79.232-52.896-143.84-117.792-143.84-64.928 0-117.888 64.64-117.888 143.84 0 34.144 12 63.904 27.264 91.872 32.544 59.648 71.552 117.344 90.624 197.632 20.736-78.944 57.44-134.56 90.56-197.632v0zM835.616 285.632v-39.232h129.376v39.232h-129.376zM835.616 412.96v-39.264h47.936v-56.032h33.536v56.032h47.904v39.264h-47.904v56.032h-33.536v-56.032h-47.936zM402.432 339.712l115.104-16.928c28.256-4.16 48.352-36.032 44.64-70.912v0c-3.744-34.784-29.952-59.904-58.208-55.744l-115.104 16.896c-28.32 4.192-48.416 36.064-44.672 70.912v0c3.744 34.816 29.952 59.936 58.24 55.776v0zM419.456 521.664c-44.288 6.496-84.32-21.344-88.96-61.92v0c-4.672-40.512 27.68-78.944 72-85.44l180.096-26.336c44.288-6.464 84.384 21.408 88.992 61.92v0c4.704 40.512-27.712 78.976-71.968 85.472l-180.16 26.304zM539.2 688.896l134.112-13.184c44.48-4.352 78.144-41.216 74.88-81.952v0c-3.232-40.736-42.304-70.432-86.784-66.048l-139.936 13.728c21.44 19.68 35.264 50.272 35.264 84.512-0.032 23.488-6.528 45.248-17.536 62.944v0zM0.48 324.032c0.416-68.096 62.048-147.072 120.736-146.656l238.208 1.536c-10.016 5.952-53.568 37.248-48.224 105.76v0c3.552 33.056 21.632 59.776 45.312 71.552l-0.032 1.12c-34.464 16.128-56.864 59.84-51.776 107.040v0c4.512 42.016 41.792 85.76 49.6 90.144-23.552 1.312-32.96 3.936-76.288 8.192-77.632-47.488-173.568-70.208-205.696-59.872-7.328 13.408-7.328 13.408-3.648 24.448 64.608 3.552 132.416 24.736 204.896 71.488 18.176 6.688 36.384 5.856 54.592-2.464l119.936-42.176c66.304 7.968 94.176 43.808 64.448 123.264-56.704 34.432-206.976 74.432-268.128 99.52-11.072 4.512-13.952 31.232-0.736 34.24 38.592 8.736 60.48-24.096 169.312-56.832 60.992-24.992 232.64-56.576 297.344-56.576 88.704 0 184.672 0 273.984 0 65.024 38.496 55.392 119.776 0.288 146.048-245.216 0-586.528 0-858.272 0-60.768 0-126.24-74.048-126.24-147.776l0.384-372z" />
<glyph unicode="&#xe608;" glyph-name="loading" d="M510.72 953.088c3.168 0 6.336 0 9.472 0 24.448-5.728 37.76-18.656 42.528-35.488 8.8-30.624 8.832-157.248 0-182.112-14.912-42.272-80.672-41.216-94.592 2.368-7.040 21.984-2.368 55.264-2.368 89.888 0.032 67.744-11.392 114.816 44.96 125.344zM827.68 815.904c29.44 6.496 65.92-11.712 61.536-54.4-3.328-32.384-48.448-60.288-66.24-78.080-21.472-21.472-54.368-80.288-104.064-68.576-20.768 4.896-38.336 32.32-33.12 59.136 5.6 28.64 39.136 50.944 63.84 75.712 24.48 24.416 52.64 60.576 78.048 66.208zM210.336 794.624c28.544-17.6 49.952-45.248 75.68-70.976 24.736-24.736 62.752-45.824 63.872-80.384 1.024-31.808-24.576-53.472-54.4-52.032-33.472 1.6-66.080 47.168-85.152 66.24-17.824 17.792-64.672 50.048-66.208 85.152-1.6 35.744 22.624 55.904 66.208 52zM6.912 437.44c0 4.736 0 9.472 0 14.208 8.064 23.392 17.408 35.008 35.488 40.192 26.56 7.584 159.072 8.128 182.112 0 42.272-14.944 40.128-81.056-2.368-94.624-18.304-5.888-62.176-2.336-89.888-2.336-61.504 0.032-116.544-10.368-125.344 42.56zM1024 451.648c0-4.736 0-9.472 0-14.208-7.52-21.888-16.448-34.752-35.424-40.192-31.392-9.024-155.328-9.472-182.176 0-44.864 15.84-38.048 81.696 2.4 94.624 22.432 7.168 53.152 2.368 89.92 2.368 70.016-0.032 112.384 10.72 125.28-42.592zM281.312 271.872c30.016 8.192 72.672-11.488 63.872-56.736-5.728-29.376-41.696-53.536-66.208-78.048-24.48-24.512-54.272-62.816-78.048-66.272-34.368-4.928-62.944 19.808-59.136 56.8 2.688 26.016 40.416 52.256 63.872 75.712 26.912 26.944 49.152 61.344 75.648 68.544zM726.016 250.56c42.304 8.992 70.592-35.104 101.696-66.208 22.752-22.752 60.608-54.272 63.872-75.648 5.12-33.376-18.816-68.448-63.872-59.168-21.504 4.448-48.928 39.488-75.648 66.24-27.296 27.2-74.368 54.208-63.872 101.696 3.36 15.488 18.4 28.96 37.824 33.088zM522.592-64c-4.736 0-9.472 0-14.208 0-21.92 7.552-34.752 16.448-40.224 35.456-8.992 31.392-9.44 155.328 0 182.144 15.904 44.896 81.728 38.048 94.624-2.368 7.2-22.432 2.368-53.184 2.368-89.92-0.032-70.048 10.752-112.384-42.56-125.312z" />
<glyph unicode="&#xe609;" glyph-name="man" d="M384.096 636.956c0-85.38 0-170.788-0.060-256.168-0.030-43.906-89.012-43.606-88.892 0l0.512 285.178c0 0 7.748 48.712 85.498 71.626 89.284 1.562 261.362 0.63 261.362 0.63s71.294-9.64 86.1-64.898c0.51-97.542 0.962-195.084 1.442-292.564 0.21-43.544-83.216-43.336-83.726 0l-3.124 257.728c0 0-2.402 6.216-7.568 5.826-3.694-0.090-6.186-1.952-7.358-5.256l6.818-648.254c-36.338-30.272-84.238-20.212-106.1 0.42l-0.87 356.082c0 0-2.524 6.966-5.946 6.818-3.302-0.15-7.268-4.534-7.268-6.908l-0.33-355.63c-25.586-25.678-89.822-26.938-110.966 0.060l-4.714 644.802c0 0-1.35 5.316-8.138 6.186-6.156-1.292-6.666-4.596-6.666-5.676zM511.4 925.198c43.876 0 79.644-35.856 79.644-79.822s-35.768-79.854-79.644-79.854c-43.816 0-79.612 35.888-79.612 79.854 0.030 43.966 35.796 79.822 79.612 79.822z" />
<glyph unicode="&#xe60a;" glyph-name="woman" d="M596.268 838.346c0-49.79-40.364-90.154-90.154-90.154s-90.154 40.364-90.154 90.154c0 49.79 40.362 90.154 90.154 90.154s90.154-40.364 90.154-90.154zM838.89 310.096c-29.91 47.99-82.466 88.052-148.626 114.178 0.51 39.040-0.3 79.582-0.3 106.822v34.356c0 84.418-54.056 152.798-120.636 152.798h-118.052c-66.608 0-120.636-68.38-120.636-152.798v-34.356c0-27.238-0.81-67.782-0.3-106.822-66.158-26.126-118.714-66.188-148.656-114.178h164.36c0.42-0.24 0.842-0.542 1.29-0.63 4.834-2.162 41.954 1.292 47.060 0 2.012 0 5.376 0 9.73 0v-291.332c0-23.064 16.336-41.834 36.488-41.834h12.372c20.152 0 36.518 18.77 36.518 41.834v291.334c13.754-0.060 27.87-0.060 41.592 0v-291.334c0-23.064 16.336-41.834 36.488-41.834h12.374c20.182 0 36.518 18.77 36.518 41.834v291.334c4.356 0 7.688 0 9.7 0 5.164 1.292 42.254-2.162 47.088 0 0.48 0.12 0.842 0.42 1.292 0.63h164.332z" />
<glyph unicode="&#xe60b;" glyph-name="shijian" d="M475.662 928.5c26.848 0 53.696 0 80.574 0 249.318-38.59 398.936-182.23 434.974-445.514 0-23.304 0-46.668 0-69.972-36.668-257.608-180.126-402.84-424.942-441.25 0.63-2.884 5.076-1.712 8.078-2.102 2.342 0.33 3.604-0.48 4.054-2.132-27.538 0-55.076 0-82.586 0-261.752 29.16-412.298 175.352-455.184 434.914 0 30.362 0 60.812 0 91.236 40.062 255.416 187.664 397.644 435.034 434.822zM258.116 686.658c-57.72-60.784-100.996-148.444-92.646-269.41 13.094-189.558 181.96-336.44 376.622-322.416 172.288 12.312 281.994 132.858 318.272 290.582-135.712 0-271.212 0-406.892 0 0 137.212 0 274.396 0 411.548-1.322 0-2.674 0-3.994 0-84.388-17.778-138.534-54.658-191.358-110.304zM580.322 796.962c-4.684-90.514-0.63-190.188-1.952-284.216 93.998 0 187.996 0 281.994 0-35.016 156.162-130.756 248.388-280.040 284.216z" />
<glyph unicode="&#xe60c;" glyph-name="lunyi" d="M447.224 29.334c-148.354 0-268.57 112.138-268.57 250.52 0 79.582 39.73 150.548 101.746 196.464l-4.476 77.21c-100.724-54.956-168.324-156.974-168.324-273.706 0-174.962 152.048-316.86 339.654-316.86 143.82 0 266.738 83.366 316.288 201.090l-50.452 79.374c-18.98-121.176-130.786-214.092-265.868-214.092zM905.318 160.48l-155.382 226.106c-9.58 15.076-26.428 23.606-43.876 24.144l-106.342-3.004c-2.012 12.102-4.054 23.484-6.006 33.094-33.904 165.832-74.898 281.994-184.722 261.512-68.562-12.192-97.452-139.856-63.516-305.688 7.478-36.488 17.298-70.964 28.83-102.408l237.128 15.406h82.164l136.312-197.274c14.384-22.134 44.176-28.11 69.282-14.206 25.016 13.844 20.062 38.080 6.126 62.314zM435.54 751.194c52.496 0 94.988 39.672 94.988 88.622 0 48.98-42.524 88.682-94.99 88.682s-94.99-39.702-94.99-88.682c0-48.952 42.524-88.622 94.99-88.622z" />
<glyph unicode="&#xe60d;" glyph-name="yao" d="M970.56 340l-497.824 553.6c-32.768 36.448-79.712 57.344-128.736 57.344-42.72 0-83.84-15.776-115.68-44.384l-135.904-122.208c-70.912-63.808-76.736-173.44-12.96-244.416l497.856-553.6c32.736-36.384 79.648-57.312 128.704-57.312v0c42.752 0 83.872 15.744 115.68 44.384l135.904 122.176c34.336 30.88 54.624 73.376 57.056 119.488 2.464 46.176-13.216 90.56-44.096 124.928zM962.144 217.888c-1.696-32.128-15.808-61.632-39.712-83.2l-135.872-122.176c-22.144-19.936-50.784-30.88-80.544-30.88-34.144 0-66.816 14.496-89.6 39.872l-497.824 553.632c-44.416 49.376-40.384 125.664 8.992 170.080l135.936 122.208c22.144 19.936 50.752 30.88 80.512 30.88 34.112 0 66.784-14.56 89.6-39.936l497.792-553.568c21.504-23.936 32.448-54.816 30.72-86.912zM272.992 818.336l-97.568-87.712c-43.296-38.88-40.224-112.768 6.72-165.056l215.744-239.936 254.208 228.64-215.808 239.904c-46.912 52.224-120.064 63.072-163.296 24.16z" />
<glyph unicode="&#xe60e;" glyph-name="elevator" d="M553.216 792.256l89.824-73.728 90.848 73.152-0.48 55.84-65.408-53.664 0.928 132.64-52.064-0.352 0.896-130.304-64.896 52.864zM397.152 719.456l52.032-0.32-0.928 132.608 65.568-53.664 0.352 55.84-90.848 73.12-89.792-73.696-0.384-56.48 64.992 52.896zM527.36 636.928c-34.496 0-62.592-28.096-62.56-62.496 0-34.432 28.064-62.528 62.56-62.528 34.464 0 62.496 28.064 62.496 62.528 0.032 34.4-28 62.496-62.496 62.496zM881.728 691.68h-730.496c-57.6 0-104.352-46.688-104.352-104.352v-528.864c0-57.6 46.72-104.352 104.352-104.352h730.496c57.6 0 104.352 46.752 104.352 104.352v528.864c-0.032 57.664-46.752 104.352-104.352 104.352zM534.080-1.44h-15.68v214.368h15.712v-214.368zM860.992-1.44h-240.832v415.488h15.712v-201.12h3.872c29.984 0 54.688 15.744 54.688 34.816v213.6c0 19.104-24.672 34.72-54.688 34.72h-226.976c-30.080 0-54.72-15.616-54.752-34.72v-213.6c0-19.072 24.672-34.816 54.752-34.816h7.712v201.12h15.712v-415.488h-267.2c-40.064 0-72.512 32.576-72.512 72.736v499.808c0 40.16 32.48 72.768 72.512 72.768h691.936c40 0 72.544-32.608 72.544-72.768v-499.808h0.032c0-40.192-32.576-72.736-72.512-72.736z" />
<glyph unicode="&#xe60f;" glyph-name="cesuo-manwoman" d="M488.544 928h34.528v-976h-34.528v976zM253.536 915.68c23.904 0.544 42.368-8.448 55.744-20.512 12.256-11.008 23.872-28.416 25.792-49.952 4.768-54.272-37.472-91.552-85.728-88.32-35.744 2.4-62.080 26.72-70.464 58.368-4.288 16.192-4.288 34.304 2.656 51.52 9.984 24.864 34.208 48.064 72 48.896zM373.952 616.512c-5.408 0-10.848 0-16.288 0-0.96-193.408-0.544-390.56-0.544-586.72 0-13.152 1.088-26.304-1.024-37.92-3.904-21.024-18.688-35.808-42.624-35.744-23.040 0.064-38.496 14.72-42.592 35.744-2.656 13.632-1.568 29.92-1.568 45.184 0 106.016-4.608 216.064-4.736 321.824-4.8 0.832-13.088 0.832-17.92 0-2.144-108.224-2.592-217.76-5.248-327.52-0.384-15.648 1.184-32.064-2.624-44.704-3.584-11.936-11.552-20.992-22.624-26.336-10.56-4.96-27.136-5.728-39.424 0.576-10.688 5.6-17.92 14.784-21.024 27.328-3.072 12.48-1.568 29.92-1.568 46.816 0 193.504 0 388 0 581.024-4.576 1.248-11.392 0.192-16.8 0.544-2.24-72.608-3.488-136.352-5.28-210.816-0.192-9.312-0.128-20.96-2.656-27.872-4.192-11.616-14.56-20.896-29.44-21.024-15.168-0.096-25.696 8.864-29.952 20.512-4.672 12.64-2.656 35.68-2.656 54.144 0 56.416 0 114.816 0 168.768 0 38.336-1.568 77.248 9.984 102.528 12.672 27.776 40.064 36.128 76.768 37.888 27.776 1.344 54.464 0 80.992 0 26.592 0 53.536 0 80.96 0 59.2 0 103.328-0.288 119.36-42.592 7.264-19.104 7.872-46.112 7.872-73.088 0-67.936 0-135.008 0-202.368 0-15.648 1.632-32.768-2.656-44.736-4.352-12.224-13.92-20.896-28.896-21.024-12.896-0.096-24.256 6.624-29.44 19.968-5.728 14.656-3.296 38.72-4.224 57.856-2.912 62.464-1.344 120.192-4.128 181.76zM767.552 915.296c29.408 2.72 50.144-8.448 64.288-22.304 13.12-12.864 26.080-32.352 24.448-62.144-2.496-44.896-38.304-74.912-79.168-75.424-22.528-0.288-41.12 7.328-55.776 20.16-15.36 13.472-28.448 36.512-26.016 68 1.696 21.824 11.296 37.28 22.88 48.864 11.264 11.36 28.48 20.928 49.344 22.848zM856.8 626.88c-0.928-3.904 1.152-7.84 2.112-11.712 29.536-118.976 60.992-239.104 92.928-358.56 2.144-8.032 6.336-20.48 3.712-24.96-3.584-6.080-34.56-3.2-44.064-3.2-16.96 0-33.056 0-46.752 0 0-65.408 0-130.176 0-197.6 0-24.032 3.104-53.568-5.856-68-14.816-23.872-56.224-20.96-66.4 5.312-6.144 15.968-2.656 41.92-2.656 63.776 0 65.056-0.192 134.144 0.576 197.6-8.672 1.184-19.68 0.16-29.216 0.544 0-59.712 0-127.008 0-189.088 0-21.632 1.888-43.328 0-62.688-1.856-18.496-16.064-31.2-35.616-31.872-18.112-0.672-31.232 7.84-36.64 22.848-3.040 8.352-2.144 19.744-2.144 30.784 0 76.064 0 153.088 0 228.416-22.208 0-47.68 0-71.168 0-7.2 0-15.552-1.6-20.192 3.2-1.088 8.864 2.048 17.632 4.256 26.016 31.616 121.728 64.992 246.368 95.072 369.184-7.84 2.304-9.504-3.264-11.136-7.968-21.408-61.152-42.4-120.768-64.288-182.72-6.112-17.344-10.016-36.608-27.104-42.496-23.84-8.256-40.768 13.44-37.152 38.24 2.144 15.168 9.056 31.008 13.792 46.72 13.824 45.728 27.936 93.184 41.984 138.656 10.208 33.056 16.64 63.776 35.584 84.992 18.304 20.512 50.112 34.976 85.504 36.64 24.64 1.184 47.808 0 71.168 0 47.936 0 81.408-13.344 103.616-38.752 11.296-12.928 16.928-28.672 22.848-48.352 16.192-53.92 33.088-108.512 49.952-163.584 5.44-17.888 12.992-36.032 16.48-54.688 3.36-18.4-4.096-35.232-18.624-39.84-14.912-4.768-28.672 3.648-35.552 15.392-4.544 7.648-6.784 17.664-10.080 27.104-21.792 61.76-44.96 128-66.944 189.6-0.704 2.304-5.568 0.448-8 1.056z" />
<glyph unicode="&#xe610;" glyph-name="fivestar2" d="M281.842 935.8c153.924 0 307.898 0 461.926 0 47.212-7.536 38.732-58.536 38.732-114.602 0-85.122 0-181.298 0-257.944-27.19 1.498-60.706-3.36-82.58 3.416-11.644 38.332-6.73 89.362-6.73 136.528 0 48.828 0 99.038 0 144.974-120.876 0-241.604 0-362.45 0 0-46.004 0-96.046 0-144.974 0-47.922 4.83-99.106-6.748-138.212-23.674-2.17-57.408-3.278-80.914 0 0 76.914 0 175.782 0 257.926 0 57.144-8.682 107.79 38.764 112.886zM635.808 475.592c85.582-0.988 171.090-0.858 259.662-5.032 31.126-1.514 63.030 4.21 65.722-21.904 2.828-28.104-42.268-47.688-55.662-57.344-66.158-48.024-128.486-97.256-193.77-143.324 23.894-72.418 44.79-143.492 69.054-222.474 6.864-22.582 38.736-84.802-3.43-89.344-22.146-2.424-56.84 29.41-70.738 38.764-64.746 43.344-133.060 92.274-193.904 131.448-65.906-42.268-128.38-85.576-197.2-131.448-14.306-9.554-46.426-41.526-69.122-38.764-40.668 4.914-10.026 67.81-1.7 94.36 22.58 71.746 45.246 150.996 67.44 215.778-61.918 48.392-125.084 93.722-192.186 143.288-12.404 9.188-56.756 30.49-57.292 53.962-1.012 43.476 105.986 26.57 150.038 28.672 60.502 2.86 115.156 3.434 173.592 3.366 24.852 60.894 55.344 147.968 82.602 224.208 6.83 19.148 15.376 67.22 40.43 69.12 31.868 2.376 40.588-54.212 48.896-77.568 25.746-71.814 54.416-149.516 77.568-215.762z" />
<glyph unicode="&#xe611;" glyph-name="share1" d="M460.228 779.556c1.298 0 2.574 0 3.894 0 0-61.896 0-123.77 0-185.688 247.632-33.186 376.716-184.87 430.030-412.4 0-2.576 0-5.22 0-7.79-78.226 56.606-170.636 154.284-285.386 175.878-49.054 9.258-105.252-8.418-144.64-25.418 0-67.716 0-135.504 0-203.266-0.65 0-1.322 0-1.972 0-110.976 109.198-220.436 220.026-332.276 328.334 0 0.65 0 1.322 0 1.948 110.038 109.556 222.098 217.070 330.354 328.406z" />
<glyph unicode="&#xe612;" glyph-name="search" d="M382.368 900.32c25.664 0 51.296 0 76.896 0 133.12-15.264 230.112-79.936 293.472-172.032 58.688-85.28 94.944-252.224 28.384-364.416 14.176-22.848 38.048-38.496 58.688-58.688 40.192-39.328 79.328-78.048 123.488-119.488 27.424-25.664 51.552-45.024 60.672-82.944 0-13.504 0-26.976 0-40.48-12.64-46.72-43.552-75.2-91.072-87.008-14.112 0-28.384 0-42.496 0-58.176 16.832-104.64 74.752-145.76 113.312-41.568 38.976-78.752 77.376-117.376 111.328-99.456-75.552-292.352-66.944-398.752-10.112-108 57.664-185.248 155.872-204.416 295.552 0 24.288 0 48.576 0 72.864 33.568 199.936 155.776 311.168 358.272 342.112zM196.16 620.992c-48.672-101.632-5.152-211.040 52.64-265.216 42.144-39.52 96.864-68.992 172.064-68.768 127.712 0.192 256.896 98.752 244.896 255.072-4.64 60.064-37.184 111.904-72.8 145.696-45.504 43.136-111.616 75.136-196.384 66.816-98.4-9.632-169.408-68.864-200.416-133.6z" />
<glyph unicode="&#xe613;" glyph-name="jia" d="M1005.888 511.072h-429.92v429.92h-110.208v-429.92h-429.92v-110.208h429.92v-429.856h110.208v429.856h429.92z" />
<glyph unicode="&#xe614;" glyph-name="zhixing-right" d="M953.376 467.712c0-43.424 0-86.784 0-130.208-327.328 21.6-512.672-99.072-509.216-408.448-45.376 0-90.752 0-136.16 0 0 203.904 0 407.776 0 611.648-45.376 0-90.752 0-136.128 0 63.232 140.672 127.296 280.384 193.312 418.24 70.496-119.456 140.288-245.92 209.28-364.96 9.888-17.024 21.504-34.112 25.728-53.312-52.032 0-104.032 0-156.064 0 0-72.352 0-144.672 0-216.992 106.656 103.264 277.856 158.976 509.248 144.032z" />
<glyph unicode="&#xe615;" glyph-name="shoulu" d="M55.008 794.080c49.344 11.296 87.552-16.48 89.856-63.2 4.8-98.048-137.856-99.296-144.544-11.872-2.752 35.808 10.976 65.056 54.688 75.072zM320.64 758.528c1.6 0.64-0.064 3.648 3.936 3.968 156.576 11.648 368.224 0 550.816 0 61.536 0 144.544 8.8 148.448-31.584 5.216-54.144-95.296-39.52-160.16-39.52-139.392 0-255.040 0-398.464 0-57.664 0-165.472-13.344-171.904 27.648-3.808 24.16 11.744 33.312 27.328 39.488zM55.008 497.792c57.024 13.472 89.28-22.944 89.856-67.168 1.248-93.696-142.336-99.040-144.544-3.968-0.96 40.288 20.224 62.976 54.688 71.136zM324.544 462.208c1.376 0.48 0.096 3.68 3.904 3.968 156.608 11.616 368.608 0 550.816 0 63.456 0 143.84 9.28 144.544-35.552 0.8-49.44-99.456-35.584-164.032-35.584-137.12 0-249.28 0-390.656 0-58.016 0-159.744-12.832-171.904 23.712-8.256 24.768 5.952 36.096 27.328 43.456zM58.912 201.472c55.296 10.848 85.248-24.32 85.952-67.168 1.568-94.944-142.368-98.944-144.544-3.936-0.992 43.104 21.568 63.84 58.592 71.104zM328.448 165.92c1.152 0.384 0.256 3.68 3.936 3.936 155.328 11.552 365.792 0 546.88 0 63.936 0 143.040 8.512 144.576-35.52 1.728-49.856-100.032-35.552-164.064-35.552-137.856 0-248.896 0-390.656 0-57.952 0-159.808-12.896-171.872 23.68-8.672 26.144 7.456 36.224 31.2 43.456z" />
<glyph unicode="&#xe616;" glyph-name="jian" d="M1007.040 512c0-36.992 0-74.016 0-110.944-126.656 0-864.064-0.608-990.048 0 0 36.928 0 73.952 0 110.944 126.528 0 863.392 0 990.048 0z" />
<glyph unicode="&#xe617;" glyph-name="tow-zhuanwan" d="M164.352 959.968c44.576-87.104 93.024-180.928 132.992-265.984-35.072 0-70.144 0-105.216 0 0-133.76 0-297.472 0-440.64 0-51.872-6.24-110.784 2.016-152.8 15.552-79.52 103.52-123.776 206.432-99.264 41.696 9.92 80.96 45.76 93.312 87.296 13.504 45.696 5.952 114.112 5.952 170.752 0 120.736 0 231.776 0 353.312 0 59.584-5.088 120.256 0 174.656 8.512 91.424 82.016 162.176 172.672 170.688 158.528 14.912 255.936-52.768 265.984-184.576 12.8-167.392-5.504-376.864 2.016-547.872 31.104 0 62.176 0 93.28 0-41.376-90.24-89.344-174.016-131.008-263.968-44.8 87.488-90.464 174.144-132.96 263.968 33.728 0 67.456 0 101.184 0 3.648 125.28 2.016 278.176 2.016 414.848 0 47.168 4.672 95.136 0 136.96-10.336 92.16-105.568 137.728-210.4 111.168-47.584-12.064-90.88-54.208-97.248-111.168-5.984-53.024 0-112.864 0-168.704 0-55.712 0-111.968 0-166.72 0-112.928 8.864-226.784 0-333.472-8.192-98.368-84.128-168.544-176.672-176.64-148.896-13.088-254.368 50.496-264 182.56-7.008 96.352 0 193.632 0 289.824 0 96.064 0 189.824 0 289.792-30.432 0-60.896 0-91.328 0 42.112 90.208 88.864 175.776 130.976 265.984z" />
<glyph unicode="&#xe618;" glyph-name="kong-poi" d="M147.52 472.512c-67.36 253.344 108.064 464.096 324.256 485.312 226.88 22.272 435.648-127.264 439.296-369.536 2.592-173.056-100.928-248.768-183.424-338.4-87.456-95.040-154.24-186.144-204.672-316.192-76.064 186.24-355.168 484-328.544 454.24zM348.064 561.536c23.232-194.624 334.016-186.4 345.408 13.376 6.944 121.76-100.064 181.6-187.584 173.664-108.032-9.856-169.824-86.656-157.824-187.040z" />
<glyph unicode="&#xe619;" glyph-name="map" d="M297.184 270.752c-49.728 116.672-134.624 198.272-214.784 284.576 0-175.776 0-351.52 0-527.264 45.472 16.416 88.704 47.776 136.704 75.328 14.080 8.096 36.736 24.128 47.424 25.12 14.144 1.312 45.088-12.928 64.16-19.52 58.656-20.32 120.544-42.72 178.528-64.192 83.040 55.488 165.664 111.424 245.472 170.176 63.424-40.736 120.928-87.36 186.944-125.536 0 185.984 0 371.968 0 557.952-56.64 48.448-123.552 86.624-184.128 131.136-71.008-44.352-135.328-95.36-206.432-139.488 5.248 14.272 1.824 37.248 2.816 55.776 67.36 46.048 135.488 91.36 200.8 139.488 82.688-55.872 165.248-111.872 245.504-170.176 0-222.24 0-444.48 0-666.72-14.432-9.376-28.32 29.024-58.56 22.304 2.816 12.128-5.76 12.8-8.384 19.52-60.928 37.632-117.12 80-175.744 119.968-83.424-54.208-161.952-113.376-245.504-167.392-82.752 26.016-163.328 54.272-242.688 83.68-32.736-15.392-63.296-37.824-94.848-55.776-32.032-18.208-69.216-29.92-92.064-58.592-27.616-0.288-36.96-18.848-58.592-25.088 0 222.24 0 444.512 0 666.752-0.416 11.552 19.392 2.912 27.904 5.568-44.032 158.752 70.656 290.784 212.032 304.064 148.448 13.952 284.96-79.744 287.328-231.52 1.696-108.448-66.016-155.872-119.968-212.032-57.184-59.552-100.928-116.672-133.92-198.112zM182.816 664.096c15.2-121.952 218.528-116.832 225.984 8.384 4.544 76.288-65.472 113.792-122.752 108.8-70.688-6.144-111.072-54.272-103.232-117.184zM813.312 597.152c4.864-34.656 2.752-80.416 2.752-136.672 0-49.28 14.24-165.44-47.424-128.352-21.504 12.96-11.136 88.928-11.136 128.352 0 52.8-2.176 96.928 2.816 136.672 10.816 13.568 42.496 14.944 52.992 0zM514.784 454.88c63.456 47.008 58.592-34.272 58.592-106.016 0-38.336 4.064-89.312-11.2-100.448-9.184-6.688-29.184-7.168-39.008 0-34.688 25.184 0.832 163.392-8.384 206.464z" />
<glyph unicode="&#xe61a;" glyph-name="tingzhenqi" d="M659.36 884.864c73.536 0 147.040 0 220.576 0 32.64-8.352 63.68-28.8 76.512-64.448 10.176-28.192-5.504-62.56 8.96-97.888 6.208-14.944 30.464-25.472 38.272-42.976 24.672-54.944-0.512-113.632-38.272-133.664-34.912-87.808-95.296-166.816-213.76-152.768-84.576 10.016-130.272 78.4-159.776 152.768-61.76 11.168-71.584 148.032-9.024 167.104-27.584 86.336 13.248 162.080 76.512 171.872zM924.928 703.424c-82.624-23.68-210.752-20.8-299.328-4.768-0.672-10.4-2.304-19.776-6.752-26.272-6.304 2.88-15.488 2.656-24.704 2.4-17.6-17.568-17.6-65.952 0-83.52 11.488-1.856 16.288 3.328 26.976 2.4 21.6-86.784 72.928-171.296 173.28-159.936 82.016 9.28 118.336 80.352 141.824 157.536 6.72 0 13.504 0 20.224 0 19.36 14.528 19.968 61.44 4.512 81.152-7.744 2.912-14.912 6.496-26.976 4.8-1.856 10.048-0.64 23.2-9.056 26.208zM661.632 30.272c-14.24 0-28.48 0-42.752 0-95.392 10.784-153.248 70.656-155.328 169.472-1.12 52.704 8.896 107.36-33.76 131.296-50.848 28.544-137.792-1.728-209.312 9.568-15.36-16.416-17.952-33.696-36-47.712-51.68-40.128-136.992-6.432-144.032 59.648 0 10.336 0 20.672 0 31.040 8.96 32.256 28.768 59.104 56.256 69.248 58.24 21.472 108.928-15.808 126.016-71.616 101.44-8.288 205.792 24.192 256.576-38.176 29.984-36.832 22.848-88.192 24.736-145.632 1.6-48.896 26.4-91.808 60.768-109.824 38.080-19.936 98.496-26.976 139.52 0 47.52 31.264 52.064 105.248 49.536 193.344-135.456 19.456-224.576 88.096-236.352 238.72 13.536 0 27.040 0 40.576 0 7.584-263.616 426.656-252.576 427.616 0 12.064-1.568 29.984 3.104 38.304-2.4-11.232-147.264-96.8-215.584-229.6-233.952 9.024-140.864-22.88-238.304-132.768-253.024z" />
<glyph unicode="&#xe61b;" glyph-name="qiguan-wei" d="M937.6 720.48c0-24.576 0-49.184 0-73.824-30.528-224.224-213.856-436.48-487.68-410.112-65.376 6.272-143.52 40.448-168.48 90.208-38.816 77.44 4.672 154.080-70.944 155.84-96.96 2.304-73.824-239.072-26.592-278.848 53.12-67.104 122.112-146.272 229.024-161.472 145.088-20.512 226.688 52.448 314.752 115.648 38.496 21.12 100.064 37.248 165.568 29.408 6.528-32.576 19.2-92.864 0-123.072-160.288 60.448-215.264-107.712-399.008-114.784-251.104-9.728-396.48 164.768-434.496 369.056 0 35.52 0 71.104 0 106.624 28.864 73.984 56.96 160.16 132.992 164.064 70.56 3.616 130.272-92.192 203.936-90.24 94.592 2.528 152.256 73.6 177.344 196.896-48.64 58.752-245.568 116.256-203.968 188.64 37.184 64.64 116.064-52.128 177.344-49.216 54.912 2.624 99.616 82.176 186.208 90.208 153.632 14.368 181.984-97.408 204-205.024zM777.984 720.48c-30.816-23.424-99.424-11.872-124.096-40.992-36.768-113.344 158.176-55.872 124.096-139.424-62.304 31.392-160.512 62.24-177.312-8.192-11.552-48.416 71.584-55.424 44.352-106.656-66.56 6.336-49.376 58.048-106.4 57.408-88.224-0.896-50.272-74.784-70.944-131.232-29.824 21.664-23.904 76.352-53.216 98.464-32.288-2.592-57.696 1.312-79.808 8.224 43.168-36.64 77.632-81.344 97.536-139.488 32.288-2.528 57.696 1.344 79.808 8.224 28.352 31.872-17.12 104.192 17.76 114.848 45.568-27.424 112.736-85.248 168.48-32.864 13.472 72.64-47.456 76.416-53.184 131.264 68.832 6.272 81.792-39.136 141.888-41.024 30.528 15.52 53.216 38.304 44.32 90.24-22.88 44.448-123.136 17.344-132.992 73.856 41.216 8.352 87.392 12.064 115.296 32.8 6.112 152.64-207.712 4.384-266.016 90.208 17.824-100.352 169.568-38.88 230.432-65.664zM547.424 786.112c58.304-85.824 272.16 62.432 266.016-90.208-27.872-20.736-74.048-24.48-115.296-32.8 9.888-56.48 110.112-29.376 132.992-73.856 8.896-51.936-13.792-74.688-44.32-90.24-60.096 1.888-73.024 47.328-141.888 41.024 5.728-54.848 66.656-58.656 53.184-131.264-55.712-52.384-122.912 5.44-168.48 32.864-34.88-10.656 10.592-82.976-17.76-114.848-22.080-6.88-47.488-10.752-79.808-8.224-19.904 58.144-54.368 102.848-97.536 139.488 22.112-6.912 47.52-10.784 79.808-8.224 29.312-22.112 23.36-76.8 53.216-98.464 20.672 56.448-17.312 130.336 70.944 131.232 57.024 0.64 39.84-51.072 106.4-57.408 27.264 51.232-55.904 58.24-44.352 106.656 16.8 70.464 115.008 39.584 177.312 8.192 34.080 83.584-160.864 26.080-124.096 139.424 24.672 29.152 93.28 17.568 124.096 40.992-60.736 26.816-212.48-34.656-230.432 65.664z" />
<glyph unicode="&#xe61c;" glyph-name="piao2" d="M996.8 662.016c-16.16 27.808-146.528 17.504-228.576 17.504-88 0-156.8 0-228.544 0-184.64 0-354.176 22.816-463.52 0-6.816-1.408-23.232-5.984-31.712-17.504-5.152 38.56 64.256 23.36 107.936 23.36 267.872 0 594.464 0 844.448 0 0-3.904 0-7.776 0-11.68-0.032-3.904-0.032-7.776-0.032-11.68zM963.072 680.256c25.152-2.56 28.32-8.864 33.76-18.24 0-155.712 0-311.392 0-467.072-24.32-1.12-59.168 0.896-71.168-0.064l-17.76-122.56c-295.328 28.096-563.648 81.088-850.752 116.768-0.192 5.664-7.776 4.544-12.704 5.856 0 155.68 0 311.36 0 467.072 8.48 11.52 24.704 17.504 31.744 17.504 112.16 0 278.88 0 463.52 0 71.712 0 140.544 0 228.544 0 54.4 0 145.44 0.16 194.816 0.736zM107.936 241.632c272.736 1.696 820.48-0.32 825.408 0 0 126.496 0 253.024 0 379.52-272.992 0-550.272 0-823.296 0-2.624-126.048-2.624-254.016-2.112-379.52zM866.144 140.96c0.256 1.472 5.952 53.472 6.144 54.624-35.68 1.408-285.056-11.968-373.504-8.544 5.92-1.408 360.992-45.248 367.36-46.080zM469.824 591.968c143.2 31.2 266.080-62.144 234.944-204.352-46.048-210.336-430.944-144.032-361.952 93.408 12.896 44.32 53.216 94.848 127.008 110.944zM457.12 445.984c-31.328 5.44-44.032-6.208-38.080-35.040 27.456-1.984 68.64 8.672 63.488-23.328-21.152 0-42.336 0-63.488 0 2.592-14.048-11.584-12.672-6.368-29.184 13.632-10.816 46.528-3.936 69.856-5.856 0-15.552 0-31.136 0-46.688 14.976-4.512 43.904-11.488 57.216 0 14.56 6.048-3.040 41.696 12.672 46.688 25.504 1.888 65.248-9.44 57.12 23.36 0.768 27.936-65.376-5.664-63.488 23.328 5.472 24.192 68.064-4.224 63.488 29.184 4.448 23.52-31.552 9.888-38.080 23.36 12.544 31.296 32.96 55.328 38.080 93.408-16.928 0-33.888 0-50.784 0-19.776-28.512-15.744-78.944-50.848-93.408-4.768 36.448-22.080 61.376-31.712 93.408-19.040 0-38.080 0-57.152 0 8.608-36.8 33.664-58.528 38.080-99.232z" />
<glyph unicode="&#xe61d;" glyph-name="located" d="M512.032 960c-282.784 0-512.032-229.248-512.032-512 0-282.72 229.248-512.032 512.032-512.032 282.72 0 512.032 229.312 512.032 512.032 0.032 282.752-229.28 512-512.032 512zM512 29.312c-235.648 0-426.656 191.040-426.656 426.688s191.008 426.656 426.656 426.656 426.688-191.008 426.688-426.656-191.040-426.688-426.688-426.688zM773.184 457.056c0-146.192-118.512-264.704-264.704-264.704s-264.704 118.512-264.704 264.704c0 146.192 118.512 264.704 264.704 264.704s264.704-118.512 264.704-264.704z" />
<glyph unicode="&#xe61e;" glyph-name="stair" d="M398.496 755.278v-173.364c0.61-17.486 8.698-34.562 35.348-48.788v-230.036c9.658-39.246 70.464-34.33 69.794 0v205.54l95.774-49.574v-86.61c22.956-31.508 59.028-27.9 71.424-1.076v76.194c0 24.35-3.114 40.148-21.15 53.85l-108.080 53.356 2.386 92.108 90.682-36.104c27.61 0 35.842 11.49 24.67 34.388l-115.352 55.916-2.822 52.774c-2.794 53.008-120.852 65.808-142.67 1.426zM471.054 897.222c26.65 0 48.41-21.47 48.41-47.856 0-26.416-21.762-47.886-48.41-47.886-26.706 0-48.468 21.528-48.468 47.886s21.762 47.856 48.468 47.856zM1006.448 523.060v-86.434h-77.010v-94.23h-163.764v-86.464h-163.822v-86.288h-158.876v-88.586h-167.11v-82.274h-196.318v82.538h117.738v84.572h167.11v84.252h162.164v88.356h165.422v94.288h163.764v90.362z" />
<glyph unicode="&#xe61f;" glyph-name="jinjitongdao" d="M976.672 907.264h-914.496c-29.216 0-52.896-23.68-52.896-52.864v-709.632c0-29.184 23.712-52.8 52.896-52.8h197.216v62.816h-172.064c-5.312 0-9.632 4.864-9.632 11.008v674.24c0 6.016 4.32 10.944 9.632 10.944h866.112c5.248 0 9.568-4.864 9.568-10.912v-674.368c0-6.112-4.256-11.008-9.568-11.008h-174.048v-62.816h197.312c29.248 0 52.8 23.616 52.8 52.8v709.728c0.064 29.184-23.552 52.864-52.832 52.864zM635.232 461.92l65.568-72.288c15.36-18.016 34.688-24.096 58.208-18.304l85.12 20.992c0 0 32.928 4.736 27.488 42.656-7.424 28.832-36 24.288-36 24.288l-82.688-19.264-77.568 80.32c-6.272 7.264-42.848 46.656-52.576 50.368l12.448-108.768zM545.056 577.92l-151.744-2.72c-19.616 0.224-35.872-3.52-48.96-11.392-13.088-8-25.792-13.536-36.576-33.28l-58.784-114.4c-3.744-8.64-4.064-17.024-0.96-25.248 3.328-8.48 9.376-14.72 18.432-19.040 7.296-4.064 15.136-4.416 23.52-0.992 8.352 3.104 14.784 9.312 19.072 17.952l65.536 114.048 98.688-3.744 71.776 78.816zM609.152 628.128c-22.88-2.912-42.784 2.304-59.552 15.424-16.992 13.344-26.784 31.648-29.696 54.528-2.816 22.176 2.144 41.504 15.328 58.496 12.96 16.896 30.976 26.688 53.856 29.6 21.952 2.784 41.12-2.272 57.632-15.456 16.736-13.152 26.4-30.656 29.216-52.8 2.912-22.88-1.984-43.040-14.88-60.16-12.672-16.896-29.952-26.848-51.904-29.632zM421.152 421.696c41.856 135.232 112.32 169.696 183.040 157.248 57.632-17.888 61.728-73.12 20.736-219.712-3.264-12.256-17.504-64.832-24.768-88.704l-202.656 26.208c4 27.648 4.64 50.112 23.648 124.96zM400.928 310.176c-4.864-16.96-8.192-65.088-5.856-94.912l13.984-123.904-157.056-21.984c-14.624-1.856-27.2-6.176-38.208-12.928-11.040-6.944-17.6-14.4-19.968-22.592l-6.112-17.856c0 0-5.28-14.784 1.28-20.96 5.184-7.68 23.488-3.808 23.488-3.808l240.672 30.592c15.296 1.952 27.936 7.616 37.664 17.376 9.696 9.536 14.336 20.8 14.112 34.24l-1.76 141.664 14.56-1.408 168.928-250.272c13.632-20.896 31.488-29.76 53.952-26.88l31.584 4c0 0 19.648 2.944 25.344 14.304 4.128 8.96-4.832 24.192-4.832 24.192l-205.312 315.104-186.464 16.032zM585.92 580.928l-82.976-3.744-52.096-78.144 31.968-6.336z" />
<glyph unicode="&#xe620;" glyph-name="gaizhang" d="M987.616 732.256c-19.68 37.184-47.904 76.448-77.888 94.464-17.248 10.336-48.672 19.456-71.264 13.248-18.688-5.152-37.376-13.76-58.016-19.904-119.328-35.52-246.304-76.352-359.648-116-20.48-7.2-43.104-11.232-59.648-19.904-28.96-15.2-41.504-58.656-53.024-97.76-10.144-34.336-34.944-77.856-29.824-120.96 2.848-24.096 20.832-48.448 34.784-71.232 19.904-32.48 39.488-58.848 69.6-74.432 4.704-10.048 10.944-18.464 17.696-26.080-74.144-1.216-148.96-2.464-226.432-3.776-41.952-72.256-82.592-153.856-122.624-227.008-5.408-9.92-14.24-20.16-13.28-31.488 301.824 0.192 598.688 2.752 904.8 1.664-40.064 91.968-87.168 176.896-129.248 266.784-75.296-0.96-149.472-2.048-223.616-3.2 20.992 22.4 33.216 52.992 28.032 90.944 24.48 11.488 48.896 26.496 77.984 38.048 29.792 11.904 62.496 16.192 89.472 28.16 46.336 20.64 62.88 65.12 89.472 106.016 14.688 22.592 27.104 49.568 44.736 64.672 12.16 10.368 30.912 17.76 48.064 29.824 12 8.448 37.472 25.568 38.080 39.776 0.352 7.2-11.52 25.568-18.208 38.144zM691.072 205.408c12-4.16 13.696-35.52 18.176-46.336-143.424-0.704-285.504-2.88-427.552-4.96 5.152 14.72 10.432 29.344 14.944 44.704 117.888 7.136 276.96-0.128 389.408 6.592 4 0.288 2.88 0.736 5.024 0zM550.976 296.096c-36.032-0.544-72.416-1.088-108.736-1.696-23.84 12.864-42.272 34.944-46.208 66.752-7.52 60.928 37.536 117.632 112.672 109.28 17.408-1.952 27.872-9.472 43.136-16.576-8.416-28.256-51.264-34.432-49.76-67.84 1.856-41.088 61.6-19.936 89.472-8.32 1.984-39.168-15.456-66.272-40.576-81.6zM646.24 523.488c-10.464-27.936-42.944-45.344-72.864-51.392-25.408 18.976-92.544 37.216-132.608 13.312 24.096 44.832 73.312 75.104 137.568 92.768 20.352 5.6 46.592 17.12 61.28 9.952 15.712-7.68 13.664-46.048 6.624-64.64z" />
<glyph unicode="&#xe621;" glyph-name="dengji" d="M537.088 940.608c65.6 0 119.136-53.504 119.136-119.072 0-65.632-53.536-119.136-119.136-119.136-65.568 0-119.136 53.504-119.136 119.136 0.032 65.536 53.568 119.072 119.136 119.072v0zM648.64 653.152h-213.952c-76.352 0.128-137.312-68.736-137.312-124.992v-176.64c0.032-25.152 1.344-48.896 34.528-56.064h146.304c39.072-2.496 35.104 58.432 4.544 57.664h-107.712v152.16h40.288v-110.656h252.672v110.656h43.168v-140.832l-103.456-68.96c-34.016-19.392-28.672-78.464 31.936-54.368l136.128 97.632v201.568c-3.264 44.96-38.752 112.832-127.136 112.832zM521.536 301.408v-15.808h66.304v15.808h-44.544zM639.2 217.408l0.128-133.632-171.392-1.28v190.080h-21.376v-211.712h213.696v156.544zM833.536 432.352h-57.92v-35.808h53.28c17.696 0 32-14.624 32-32.704v-320.928c0-18.048-14.304-32.704-32-32.704h-582.912c-17.696 0-32 14.656-32 32.704v320.928c0 18.080 14.336 32.704 32 32.704h51.328v35.808h-57.888c-34.624 0-62.72-28.064-62.72-62.752v-333.92c0-34.656 28.096-62.752 62.72-62.752h594.080c34.624 0 62.752 28.096 62.752 62.752v333.92c0.032 34.688-28.064 62.752-62.72 62.752z" />
<glyph unicode="&#xe622;" glyph-name="shuilongtou" d="M659.394 686.388c0-40.092 0-80.182 0-120.304 99.674-7.568 213.462-1.082 318.572-3.244 0-58.5 0-117.032 0-175.532-81.294 0-162.558 0-243.824 0-17.688-15.196-20.752-37.178-45.528-51.984-68.020-40.874-198.836-19.52-214.544 51.984-169.436 0.39-230.85-107.242-214.572-292.564-58.532 0-117.032 0-175.562 0-24.266 333.106 133.368 484.344 458.456 468.096 0 40.092 0 80.182 0 120.274-92.706 9.37-189.318-18.92-178.836 74.778 8.56 76.4 139.524 52.014 250.34 52.014 78.592 0 161.598 11.052 191.81-9.76 31.774-21.894 27.358-85.168 0-104.028-32.344-22.252-93.126-3.274-146.312-9.73z" />
<glyph unicode="&#xe623;" glyph-name="tow-dirstair" d="M1021.76 765.248v-95.072h-84.704v-103.648h-180.128v-95.104h-180.192v-94.912h-174.752v-97.44h-183.808v-90.496h-215.936v90.784h129.504v93.024h183.808v92.672h178.368v97.184h181.952v103.68h180.128v99.424zM321.76 670.816h162.112c17.632 0 31.968 14.336 31.968 31.936 0 17.696-14.336 32-31.968 32-69.664 0-130.048 0.16-130.048 0.16l-0.128 128.672c0 17.664-14.304 32-31.936 32-17.664 0-31.968-14.304-31.968-32 0-69.6 0-160.832 0-160.832 0-17.6 14.304-31.936 31.968-31.936zM551.424 887.264c12.512 12.512 12.512 32.736 0 45.216-12.48 12.48-32.704 12.48-45.248 0-38.656-38.688-115.104-115.136-142.464-142.56l45.312-45.056c21.152 21.152 107.168 107.2 142.4 142.4zM624.608 216.064h-162.112c-17.632 0-31.968-14.304-31.968-31.936 0-17.696 14.304-31.968 31.968-31.968 69.664 0 130.016-0.16 130.016-0.16l0.128-128.672c0-17.696 14.304-32 31.968-32s31.968 14.304 31.968 32c0 69.632 0 160.8 0 160.8 0 17.632-14.336 31.936-31.968 31.936zM394.944-0.384c-12.512-12.512-12.512-32.736 0-45.216 12.48-12.48 32.672-12.48 45.184 0 38.656 38.72 115.072 115.168 142.432 142.528l-45.28 45.056c-21.12-21.12-107.104-107.168-142.336-142.368z" />
<glyph unicode="&#xe624;" glyph-name="shoufei" d="M147.812 908.528c65.198 0 130.426 0 195.654 0 55.948-111.986 117.962-217.096 173.34-329.774 76.52 95.080 121.928 225.324 190.098 329.774 61.474 0 123.008 0 184.482 0-33.904-109.614-119.284-230.88-167.784-345.12 62.884 0 123.88 0 184.572 2.674 0-52.916 0-88.984 0-141.838-44.326 0-232.082 0-285.928 0-0.87-16.398 0-84.028 0-84.028s242.924 0 285.928 0c0-55.106 0-93.398 0-148.384-93.158 0-192.712-0.090-285.928-0.090 0-61.114 0-140.876 0.78-209.228-63.336 0-126.732 0-190.128 0 0 67.63-3.154 141.568-3.154 209.228-91.356 0.3-192.17-4.144-293.106 0.090 0 54.986 0 93.278 0 148.384 46.398 0 237.248 0 293.106 0-0.36 17.778-0.36 62.106 0 84.028-54.748 0-242.862 0-287.548 0 0 52.824 0 88.924 0 141.838 57.78 0 115.56 0 173.31 0-50.692 120.126-118.984 220.188-167.694 342.446z" />
<glyph unicode="&#xe625;" glyph-name="pin" d="M536.096 105.312v37.568c126.336-3.68 225.984-44.224 225.984-93.792 0-51.936-109.632-96.48-244.768-96.48-135.328 0-245.024 44.544-245.024 96.48 0 49.568 99.68 90.016 226.176 93.792v-37.568c-105.664-2.592-188.48-26.752-188.48-56.224 0-31.168 92.832-61.152 207.328-61.152 114.432 0 207.104 30.016 207.104 61.152-0.032 29.472-82.72 53.632-188.32 56.224v0zM310.272 687.744c0 114.336 95.168 207.040 209.664 207.040 114.432 0 207.136-92.704 207.136-207.040 0-98.272-68.608-180.384-160.48-201.568l-49.344-498.208-49.536 499.648c-89.152 23.136-157.44 103.84-157.44 200.128v0zM517.28 743.2c0 31.2-25.312 56.48-56.544 56.48s-56.544-25.28-56.544-56.48 25.312-56.48 56.544-56.48 56.544 25.28 56.544 56.48v0z" />
<glyph unicode="&#xe626;" glyph-name="jishiben" d="M459.424 165.344l-205.728 227.68 40.224 40.224 156.768-136.928 280.896 258.496 47.648-38.912-319.808-350.56zM839.424 805.056c42.592 0 20.16 0.224 0 0l-1.792-751.552c5.952-2.24-23.584-0.896-23.648-0.928l-623.040-3.84c-0.096 0.064 1.344 12.736 1.28 12.8l1.28 743.52c0.064 0.096-0.064-0.064 0 0h-111.36v-737.152c0-67.552 55.296-122.848 122.848-122.848h614.272c67.552 0 122.848 55.296 122.848 122.848v737.152h-102.688zM634.976 805.056v61.44c0 33.952-27.456 61.408-61.408 61.408h-122.816c-33.952 0-61.44-27.488-61.44-61.408v-61.44h-139.68v-76.16h538.912l0.48 76.16h-154.048zM589.568 805.056h-149.056l0.64 78.688h147.776l0.64-78.688z" />
<glyph unicode="&#xe627;" glyph-name="shuye" d="M570.368 749.056c0-63.854-51.764-115.616-115.616-115.616s-115.616 51.762-115.616 115.616c0 63.852 51.762 115.616 115.616 115.616s115.616-51.764 115.616-115.616zM453.44 255.296c-154.016 0-286.080-77.824-342.176-188.576h684.288c-56.096 110.752-188.16 188.576-342.112 188.576zM544.192 415.2h26.016c0 0 15.232-52.608 38.496-130.048 5.696-17.312 21.952-29.856 41.184-29.856 14.048 0 26.624 6.752 34.496 17.216 48.128 63.648 118.24 147.648 130.048 162.368 12.672 15.744 12.832 37.6 1.856 53.632l64.544 0.032v222.624h-104.512v-204.256c-11.328-1.472-22.208-7.584-30.144-17.504-5.952-7.392-36.928-44.8-78.048-94.944-6.784 23.328-13.472 46.656-19.872 68.448-15.52 52-71.552 104.832-127.552 104.832zM27.232 127.584v-128.16h959.52v131.648zM634.176 335.136v43.872c0 107.968-56 195.328-125.024 195.328h-122.464c-69.088 0-125.088-87.36-125.088-195.328v-43.872c0-85.344-5.12-272.864 17.28-283.232 5.024-2.752 43.52 1.696 48.8 0 23.872-0.032 216.544-0.032 240.352 0 5.312 1.696 43.808-2.752 48.832 0 22.464 10.336 17.312 197.888 17.312 283.232z" />
<glyph unicode="&#xe628;" glyph-name="jianyan" d="M937.632-7.808c0 31.008-25.408 56.256-56.192 56.256h-173.568c87.904 0 159.552 170.048 159.552 246.816 0 123.936-81.408 230.24-195.808 273.28l159.168 283.296v57.696l-60.384 34.144-47.264-34.144-244.064-443.52c0 0 21.12-16.16 17.056-33.92-4.032-17.728-19.328-42.688-19.328-42.688l36.256-18.56c0 0 17.696 32.288 30.592 34.656 12.896 2.4 38.656 4.064 38.656 4.064l56.576 100.608c90.080-30.336 154.72-110.528 154.72-204.224 0-74.56-40.8-140.48-102.816-179.616h-215.2c-21.408 0-38.976-17.536-38.976-38.976 0-21.184 17.12-38.496 38.208-38.912v0l-175.488-0.064c-30.432-0.576-55.104-25.6-55.104-56.192 0-30.912 25.344-56.192 56.16-56.192h581.056c30.816 0 56.192 25.28 56.192 56.192v0zM570.24 216.64c-6.624-12.032-21.888-16.48-33.888-9.888l-226.112 124.032c-12 6.592-16.512 21.792-9.888 33.824 6.56 11.936 21.44 16.416 33.44 10.112v0l0.352-0.192 226.144-124.064c12.032-6.592 16.512-21.792 9.952-33.824z" />
<glyph unicode="&#xe629;" glyph-name="ka" d="M125.696 758.752c58.432 8.192 138.784 1.792 204.256 1.792 131.808 0 262.336 0 401.44 0 56.064 0 149.408 10.496 195.392-5.344 18.912-6.528 44-25.312 53.248-47.968 15.328-37.28 5.408-96.832 5.408-143.872 0-103.2 0-197.184 0-298.432 0-47.584 7.68-109.088-3.552-145.664-8.032-26.016-30.56-48.832-53.344-56.8-26.4-9.28-65.728-3.552-101.184-3.552-211.84 0-407.648 0-619.968 0-36.384 0-75.808-4.448-99.456 3.552-19.744 6.656-46.112 31.968-53.312 51.488-12.256 33.152-5.344 99.168-5.344 145.664 0 112.48 0 182.112 0 300.192 0 41.856-4.448 117.152 7.136 145.664 12.224 30.016 37.152 48.704 69.28 53.28zM916.128 696.576c-13.344 9.408-62.432 5.312-92.352 5.312-200.768 0-397.984 0-593.312 0-34.272 0-73.984 5.952-99.456 0-37.792-8.768-18.336-78.432-23.104-117.248 272.96 0 545.92 0 818.88 0-0.576 26.688 11.68 96.192-10.656 111.936zM107.936 403.488c0-51.552 0-90.656 0-143.904 0-36.672-10.080-116.992 8.896-135.008 13.12-12.48 58.368-8.896 92.352-8.896 213.152 0 408.288 0 616.352 0 35.008 0 82.016-2.848 94.176 8.896 19.008 18.368 8.832 99.328 8.832 136.768 0 56.384 0 98.688 0 147.424-272.96 0-545.888 0-818.848 0-2.048-0.256-1.92-2.784-1.76-5.28zM225.184 291.584c0-38.528 0-76.992 0-115.488-19.552 0-39.104 0-58.656 0 0 38.496 0 76.96 0 115.488 19.552 0 39.104 0 58.656 0zM342.4 291.584c0-38.528 0-76.992 0-115.488-19.552 0-39.072 0-58.624 0 0 38.496 0 76.96 0 115.488 19.552 0 39.072 0 58.624 0zM459.648 291.584c0-38.528 0-76.992 0-115.488-19.52 0-39.072 0-58.624 0 0 38.496 0 76.96 0 115.488 19.552 0 39.072 0 58.624 0z" />
<glyph unicode="&#xe62a;" glyph-name="jiandao" d="M478.56 331.328l43.296-70.752-22.688-37.568c-20-6.688-38.656-29.6-55.712-68.832l-45.696-104.384c-34.528-78.752-77.152-118.112-128.032-118.112-27.104 0-50.048 10.144-68.736 30.336-18.688 20.224-28.064 44.896-28.064 73.696 0 41.152 13.888 77.248 41.632 108.288 27.712 30.88 60.096 46.336 96.832 46.336 2.72 0 12-0.672 27.712-2.048l11.52-0.512c7.36-0.704 12.832-1.088 16.608-1.088 24 0 44.736 19.104 62.176 57.216 3.296 6.752 6.912 13.248 10.464 19.552l38.688 67.872zM572.992 228c4.832 0.576 8.096 0.864 10.144 0.864 17.28 0 36.896-17.504 58.624-52.288l99.36-159.008c35.84-57.312 68.416-85.92 97.6-85.92 22.4 0 40.736 9.248 55.36 27.584 14.496 18.528 21.888 42.016 21.888 70.816 0 56.864-21.632 111.2-64.8 162.784-42.816 51.552-87.104 76.096-132.416 73.92l-24.736-1.6-12.48-1.024h-4.672c-27.776 0-46.912 14.432-57.536 43.264l-4.192 10.912c-2.496 7.072-9.568 20.096-20.576 38.784l-349.888 602.912c-18.336-45.216-27.648-90.784-27.648-137.12 0-8.704 0.704-17.76 2.080-27.552l353.888-567.328zM604.768 391.2l-46.336 77.28 282.144 491.52c16.832-41.088 25.184-80.576 25.184-117.92 0-15.072-1.376-31.36-4.128-48.768l-256.864-402.112zM347.648 35.712l12 24.512c10.432 22.144 15.584 40.16 15.584 53.888 0 26.688-18.656 40.096-56.16 40.096-27.392 0-52.8-12.384-75.936-37.248-23.136-24.672-34.656-51.936-34.656-81.76 0-17.888 6.176-33.088 18.528-45.92 12.512-12.864 27.232-19.328 44.192-19.328 28.512 0 54.016 21.824 76.448 65.76v0zM709.632 137.728c-15.776 26.4-23.68 45.952-23.68 58.56 0 21.12 12.032 31.712 36.256 31.712 35.776 0 70.88-21.28 105.312-63.776 34.528-42.432 51.84-85.824 51.84-130.016 0-21.376-3.424-37.6-10.176-48.16-6.624-10.816-16.576-16.096-30.112-16.096-16.224 0-35.648 17.6-57.76 52.704l-71.68 115.072zM568.064 356.608c0-16.192-7.872-24.128-23.648-24.128-15.744 0-23.648 7.936-23.648 24.128s7.904 24.448 23.648 24.448c15.776-0.032 23.648-8.288 23.648-24.448z" />
<glyph unicode="&#xe62b;" glyph-name="zhuyuan" d="M950.304 175.648c51.552 96.672-21.44 200.928-127.52 190.624-64.384-6.304-113.856-61.504-113.856-127.52 0-42.72 20.832-72.672 42.528-96.032-22.72-4.576-45.056-9.568-68.48-13.44 0 39.648 0 79.36 0 119.072-67.232 30.272-166.848 36.288-257.856 31.52-90.4-4.736-170.24-24.448-238.592-55.424 0 65.824 0 131.616 0 197.472 6.848 0 13.728 0 20.576 0 10.848 8.8 20.544 17.312 31.52 27.392 7.968 7.328 30.304 28.128 30.304 28.128 0.672 21.472-0.128 53.408-0.128 77.472 0 25.952 0 50.624 0 76.8-67.648 0-135.296 0-202.944 0-3.2-48.896-0.448-103.744-1.344-154.944 21.184-18.56 41.44-38.048 64.448-54.848 4.832 0 9.632 0 17.824 0 0-72.064 0-145.344 0-217.472-44.704-24.864-83.68-55.008-116.576-89.12-5.568-5.824-16.832-13.152-13.696-19.2 220.768-2.272 443.488-2.56 664.992-4.128v0c107.424 0 214.848 0 322.24 0 0 14.144 0 28.352 0 42.528-16.384 15.072-37.216 25.792-53.44 41.12zM105.664 521.984c0.928 22.848-1.824 49.344 1.376 69.952 40.224 0 80.448 0 120.672 0 0-23.328 0-46.624 0-69.952-40.704 0-81.344 0-122.048 0z" />
<glyph unicode="&#xe62c;" glyph-name="help" d="M509.024-31.008c-269.472 0-488.064 218.624-488.064 488.288 0 269.44 218.592 487.84 488.064 487.84 269.6 0 488-218.368 488-487.84 0-269.664-218.4-488.288-488-488.288v0zM509.184 834.784c-208.704 0-377.984-168.992-377.984-377.44 0-208.96 169.248-377.984 377.984-377.984 208.576 0 377.6 168.96 377.6 377.984 0 208.448-169.024 377.44-377.6 377.44v0zM593.056 438.528c-24.384-16-33.504-34.464-33.504-54.016v-72.256h-92.768v107.136c0 32 10.496 53.792 40.96 73.344l52.256 35.552c33.28 22.912 33.12 69.024 12.192 89.44-18.24 17.888-49.056 28.192-81.952 21.536-60.224-12.16-65.056-56.672-65.056-98.816v-18.4h-92.672c0 79.072 8.672 114.976 50.080 160.256 46.144 50.656 111.296 58.816 171.328 46.368 60.064-12.416 131.52-71.072 131.52-156.384 0.064-85.344-67.968-117.792-92.384-133.76v0zM513.248 180.32c-26.432 0-47.84 21.376-47.84 47.744s21.408 47.808 47.84 47.808c26.368 0 47.68-21.44 47.68-47.808s-21.312-47.744-47.68-47.744v0z" />
<glyph unicode="&#xe62d;" glyph-name="guahaoji" d="M828.8 424.736c0-135.488 0-270.944 0-406.432 68.032 10.72 93.12-19.232 81.056-82.304-245.6 0-491.264 0-736.864 0-10.080 69.088 16.416 90.592 81.024 82.304 0 249.024 0 518.272 0 772.992 0 58.496-12.064 125.92 36.16 132.128 167.488 0 334.976 0 502.4 0 48.576-8.192 36.224-65.44 36.224-122.144 0-92.736 0-201.504 0-285.504zM338.848 804.704c-6.272-25.824-2.496-64.352-2.496-84.608 0-51.744 0-120.864 0-175.488 0-24.48-3.104-68.576 2.496-86.144 13.536-42.944 63.552-31.328 113.44-31.328 61.44 0 118.528 0 182.048 0 26.528 0 69.504-6.56 88.512 3.168 28.224 14.336 24.928 53.28 24.928 106.528 0 63.2 0 132.672 0 191.136 0 27.488 2.72 68.064-6.208 87.744-15.296 33.504-59.008 25.024-104.768 25.024-57.12 0-121.888 0-177.056 0-26.496 0-64.032 5.408-91.008-1.536-17.088-4.448-25.728-17.344-29.888-34.496z" />
<glyph unicode="&#xe62e;" glyph-name="canyin2" d="M798.816-25.344c0.64-15.584-7.072-32.672-22.816-32.864h-50.624c-14.016 1.28-28.992 21.984-29.44 36.256l-0.16 438.688c-46.144 3.392-70.432 49.92-70.432 106.88v317.472c24.288 121.184 146.336 121.184 173.472 3.36v-869.792zM454.656 579.296c26.656 0.64 51.392 18.336 49.984 53.312v292.928h-44.608v-162.144c0.608-21.536-39.68-20.864-40.576 3.872v158.272h-44.576v-158.272c0-25.6-41.6-25.408-41.856-2.56v162.112h-46.944l-0.384-290.56c0.256-24.992 25.152-57.184 57.568-60.832l0.256-599.744c0.608-16.64 11.68-38.144 27.52-39.68l56.064 0.224c17.472 0 28.8 21.312 28.16 39.456 0.032 201.856-0.192 403.456-0.608 603.616z" />
<glyph unicode="&#xe62f;" glyph-name="chu-dainti" d="M410.208 766.336c-21.888-3.584-37.632-17.6-45.76-31.616-0.704-1.248-9.824-18.56-9.792-37.696 0.064-48.768 41.376-76.384 79.52-70.528 34.72 5.344 60.864 43.712 54.464 83.936-5.408 34.048-36.64 62.752-78.432 55.904zM851.744 283.616l163.744 164.928-164.864 163.136-112.384 0.704 105.28-118.048-228.192 1.6c0-32.896-0.672-62.656-0.672-94.048l232.8 1.504-106.88-119.136 111.168-0.64zM591.744 506.368c0 23.936 2.592 52.864-0.992 69.696-11.168 51.968-110.112 35.456-160.768 35.456-27.008 0-61.088 0-93.76 0-30.56 0-61.504-3.2-70.016-31.552-4.256-14.112-1.984-45.6-1.984-69.664 0-51.072 0-92.128 0-143.328 0-23.136-2.816-52.32 0.96-69.728 5.824-26.368 31.392-33.632 59.2-34.176 1.824 68.768 1.024 150.56 1.024 224.896 0 6.176-3.872 25.312 6.88 22.368 11.584 3.936 7.904-14.688 7.904-20.992 0-152.256 0-315.36 0-466.976-35.936 0-75.040 0-113.44 0-38.88 0-78.112-4.288-111.456 1.344-18.912 3.2-36.736 17.056-42.4 38.144-5.088 18.88-1.984 55.424-1.984 88.096 0 180.8 0 359.648 0 543.136 0 29.792-2.72 72.64 2.944 89.44 16.384 48.384 73.536 36.8 126.304 36.8 161.952 0 320.704 0 485.344 0 47.648 0 85.664 4.192 97.664-39.424 5.248-19.040 1.984-58.656 1.984-88.128 0-6.688 0-13.376 0-20.032h49.344c0 34.304 0 68.608 0 102.88-7.776 56.224-43.968 98.080-93.696 102.624-49.248 4.48-102.496 0-156.864 0-100.8 0-209.92 0-311.712 0-53.6 0-106.688 4.064-155.872 0-49.408-4.128-87.008-45.024-94.784-102.656 0-235.808 0-471.616 0-707.488 9.472-61.44 42.048-92.096 89.728-102.56 211.104 0 422.24 0 633.344 0 47.648 10.496 80.288 41.12 89.792 102.56 0 35.712 0 71.424 0 107.168h-49.344c0-7.712 0-15.232 0-23.008 0-29.376 3.072-65.12-1.984-86.752-13.472-58.464-91.296-42.144-148.96-42.144-40.416 0-76.384 0-115.36 0 0 141.952 0 310.624 0 462.976 0 5.152-0.576 9.28 0 15.808 0.672 8 1.248 13.248 10.816 9.184 6.464-2.688 4.288-2.24 4.928-10.528 2.816-33.792 0-79.2 0-110.496 0-45.632 0-84.448 0-126.24 25.184 0.864 48.48 7.936 55.296 32.864 4.32 15.84 1.984 44.448 1.984 68.384 0 12.992 0 25.408 0 37.568 0 31.392 0 61.184 0 94.048-0.064 3.52-0.064 6.816-0.064 10.432zM435.872 22.336c-5.248 0-10.496 0-15.744 0 0 78.976 0 157.824 0 236.768 0.096 8.16 11.008 2.016 15.744 3.936 0-80.192 0-160.448 0-240.704z" />
<glyph unicode="&#xe630;" glyph-name="chu-futi" d="M776.576 831.616c21.312 0 48.512 0 71.936 0 8 0 17.024 1.536 23.328 0 5.792-1.408 13.12-10.752 19.424-16.192 44.064-38.080 89.472-76.192 132.736-113.984-43.136-38.816-87.328-78.368-132.128-118.56-5.536-4.928-14.688-14.88-19.424-16.192-6.56-1.792-16.672 0-24.64 0-24.064 0-47.872 0-72.576 0-0.512 2.88 2.88 4.192 4.576 5.856 29.952 29.952 63.488 63.392 91.968 93.28-126.752 0-253.536 0-380.224 0 0 22.048 0 44.064 0 66.048 126.688 0 253.472 0 380.224 0-5.792 9.408-14.656 16.64-22.656 24.64s-15.328 16.64-23.328 24.608c-16.704 16.672-33.792 33.28-49.216 50.496zM270.976 632.256c31.36 4 54.272-18.4 54.496-46.016 0.256-29.664-23.488-47.168-46.56-47.584-31.040-0.672-52.352 25.536-48.128 54.496 2.368 16.48 10.816 26.496 22.208 33.312 4.544 2.688 10.784 4.864 17.984 5.792zM344.544 448.672c1.824-0.48 3.264 1.696 4.224 2.624 22.016 21.6 45.248 43.168 67.712 65.632 24.32 24.32 45.312 50.336 90.528 53.44 20.256 1.408 40.128 0 60.32 0 20.672 0 41.312 1.44 59.808 0 22.56-1.728 41.632-14.464 54.016-27.488 12.96-13.792 23.328-31.488 23.712-57.696 0.48-24.896-9.376-44.736-22.144-59.264-11.328-12.8-28.768-28-51.328-30.144-20-1.984-43.264 0-64.576 0-6.88 0-15.552 0.192-21.184-1.6-6.56-2.080-14.688-10.432-20.64-16.448-18.176-18.176-37.824-37.696-56.096-54.496-52.416-48.128-97.792-96.768-150.272-144.992-12.48-11.392-25.312-23.648-37.568-35.936-24.672-24.672-48.736-51.072-96.32-51.328-23.136-0.128-48.608 0-73.536 0-27.392 0-45.504 1.472-62.976 10.56-28.576 14.912-56.32 51.552-46.016 97.376 8 35.68 38.048 66.56 79.36 67.712 12.128 0.352 24.832 0 37.024 0 10.976 0 24-1.824 35.456 1.056 7.488 1.888 14.432 11.232 20.096 16.416 16.16 14.72 30.592 27.232 47.616 42.848 2.88 2.656 8.224 6.176 9.024 8.992 1.28 4.576 0 12.64 0 19.552 0 32 0 64.32 0 96.32 0 18.176-2.304 38.4 3.68 50.272 17.536 34.816 86.656 27.808 104.768-4.736 6.464-11.616 5.376-28.8 5.312-48.672zM467.296 504.224c-44.48-44.512-91.584-87.328-134.4-130.144-35.392-35.392-78.336-74.688-115.328-111.616-11.904-11.904-24.448-27.776-40.224-35.456-23.84-11.648-71.072-0.256-100.544-6.368-21.28-4.416-35.84-25.056-30.144-49.76 4.384-19.040 20.192-32.928 40.192-34.912 22.048-2.144 46.784 0 68.768 0 22.72 0 44.736-1.856 61.376 7.392 6.56 3.584 13.28 10.496 20.096 16.896 6.496 6.112 13.344 12.832 19.040 18.528 75.616 75.584 153.12 146.24 228.64 221.696 11.584 11.584 25.696 28.192 40.192 34.944 13.76 6.4 33.76 5.28 54.016 5.28 16.16 0 36.48-2.976 49.728 1.056 17.888 5.408 30.368 25.856 29.12 44.448-1.12 16.992-11.808 29.536-24.864 35.968-15.2 7.52-44.864 3.712-67.2 3.712-20.864 0-43.904 0.608-58.272-0.544-20.992-1.632-27.968-8.896-40.192-21.12z" />
<glyph unicode="&#xe631;" glyph-name="hushi" d="M367.88 222.522c43.272-26.196 93.846-41.554 148.052-41.554 60.514 0 116.504 18.828 162.784 50.836 23.948-25.468 83.802-68.774 196.476-33.428-119.18 96.058-28.21 149.174-75.808 308.322-8.424 61.044-35.906 115.976-76.504 158.456-6.044-22.528-10.34-37.788-10.34-37.788h-116.472c58.336-51.696-2.444-128.76 138.372-160.008 0-120.634-97.842-218.508-218.508-218.508-120.634 0-218.442 97.876-218.442 218.508 76.9 3.238 201.63-38.35 280.412 160.008h-248.964c0 0-5.252 18.596-12.784 45.090-45.354-44.23-75.974-103.326-84.264-169.356-59.194-142.964 46.74-242.754-83.076-288.966 111.65-59.226 189.374-14.898 219.070 8.39zM355.46 646.59h329.662c0 0 39.54 141.148 44.064 186.336 4.492 45.154-35.048 48.558-35.048 48.558l-338.68-1.156c0 0-63.258-14.666-46.278-72.276 16.88-57.574 46.278-161.462 46.278-161.462zM395.362 844.916l255.306 0.826c0 0 29.794-2.51 26.394-36.568s-33.264-128-33.264-128h-248.436c0 0-22.132 65.866-34.916 109.27-12.716 43.404 34.916 54.47 34.916 54.47zM487.556 699.706h54.174v36.104h36.17v55.33h-36.17v36.104h-54.174v-36.104h-35.74v-55.33h35.74zM752.508 139.678h-445.606c-39.904 0-72.276-72.274-72.276-72.274l-38.714-90.31h661.108l-32.274 90.31c0.034 0.034-32.372 72.274-72.242 72.274zM275.488 13.23l15.162 32.57c0 0 25.666 57.874 57.344 57.874h360.118c31.712 0 57.41-57.874 57.41-57.874l12.618-32.57h-502.652z" />
<glyph unicode="&#xe632;" glyph-name="collapse" d="M20.992 667.488c16.32 20.512 34.688 38.912 55.168 55.2 148.544-150.656 296.704-301.728 446.368-451.328 149.344 149.824 297.632 300.768 446.304 451.328 21.28-14.944 36.416-36 55.168-53.504-165.824-170.752-333.728-339.392-501.472-508.16-168.352 167.68-334.176 337.824-501.536 506.464z" />
<glyph unicode="&#xe633;" glyph-name="expand" d="M1003.008 216.192c-16.32-20.512-34.688-38.912-55.168-55.2-148.544 150.656-296.704 301.728-446.368 451.328-149.376-149.824-297.632-300.8-446.304-451.328-21.312 14.944-36.416 36-55.168 53.504 165.792 170.752 333.728 339.392 501.472 508.16 168.352-167.68 334.176-337.824 501.536-506.464z" />
<glyph unicode="&#xe634;" glyph-name="left-arrow" d="M687.264 917.408c30.624-26.624 60.128-54.368 87.36-84.224-128.448-123.104-255.264-251.104-385.472-376.672-5.504-5.312-26.048-20.928-26.176-24.064-0.16-3.872 20.256-19.552 26.176-25.312 128.992-124.352 258.752-253.248 385.472-379.040-29.44-26.944-56.064-56.672-86.080-83.072-173.952 160.256-344.288 324.16-517.76 484.96 170.336 164.352 344.608 324.8 516.48 487.424z" />
<glyph unicode="&#xe635;" glyph-name="chu-louti" d="M151.296 868.128c43.168 10.176 83.84-24.736 66.816-70.464-19.968-53.504-115.2-42.080-108.352 26.656 2.144 21.056 17.216 38.080 41.536 43.808zM257.28 647.232c21.952-15.808 46.592-24.224 75.808-38.080 18.944-8.96 68.192-23.264 61.408-51.392-6.72-27.776-54.592-6.112-68.608 0-25.984 11.296-44.928 18.592-68.608 26.656-3.488-31.872-4.128-66.752-5.408-100.928 19.168-11.296 43.328-22.56 68.64-34.272 23.744-11.040 59.68-23.072 70.4-41.92 16.736-29.536 2.304-81.056 7.232-129.504-4.32-9.44-13.696-13.504-19.872-20.896 16.352-4.384 40.224-0.768 59.552-1.984 4.256 31.712-0.096 72.512 3.616 104.768 90.656-0.96 185.568-7.232 274.432-3.84-3.584-31.136-0.416-69.344-3.616-100.928-62.72 0.544-123.744 2.816-185.952 3.84-6.464-26.24-2.528-63.328-3.616-95.2-64.096-0.352-126.816 0.768-187.744 3.776-6.432-26.912-4.512-62.592-5.408-95.232-61.184 0.192-121.28 1.568-180.576 3.776-8.16-26.304 0.032-69.888-5.408-99.008-26.56-2.368-88.032-2.4-132.864-0.736 0 22.304 0.032 87.2-4.352 95.968 16.256 0 32.512 0 48.736 0 4.608 27.456-0.64 65.376 3.616 93.312 61.44-1.888 123.040-3.488 185.952-3.84 4.384 29.056-0.512 67.872 3.616 97.152 30.464 0.416 57.024-3.36 88.48-1.888-2.24 10.336-17.952 10.752-21.664 24.736-6.752 24.928 7.872 61.28 3.616 89.472-32.384 24.96-72.928 41.248-110.144 60.96-4.288-40.64-2.976-80.48-5.408-135.2-2.112-46.4 10.688-106.592-16.256-118.112-23.328-9.92-55.936 1.984-63.2 20.96-5.504 14.464-0.672 33.824 0 49.504 2.912 67.2 2.080 141.632 3.616 209.536-19.936 16.288-39.264 30.176-41.504 72.352-1.984 36.544 1.856 101.504 1.792 140.896-0.032 20.128 3.2 44.928 10.848 55.264 21.664 29.376 99.328 40.096 135.36 13.344 21.952-16.32 24.64-49.312 23.488-93.312zM752.224 746.24c38.016-5.952 67.648 8.16 99.328 0 11.872-3.072 31.968-25.888 43.328-36.16 41.952-38.080 83.424-78.144 124.576-112.384-54.336-53.152-109.76-105.12-166.112-156.16-33.664 0-67.328 0-101.088 0-3.936 5.984 5.856 9.792 9.056 13.312 28.576 31.552 64.832 68.608 93.888 100.928-138.4 0-276.832 0-415.328 0 0 25.408 0 50.816 0 76.192 137.888 0 275.712 0 413.472 0-27.968 36.576-70.368 74.336-101.12 114.272z" />
<glyph unicode="&#xe636;" glyph-name="shang-futi" d="M417.696 737.216c28.864 0.544 58.592 22.432 58.272 59.552-0.288 34.528-28.928 62.56-68.192 57.568-9.024-1.152-16.8-3.872-22.528-7.264-14.208-8.544-24.8-21.088-27.744-41.696-5.28-36.224 21.376-68.992 60.192-68.16zM921.024 742.496c-15.456 16.288-39.296 32.256-67.52 34.4-23.168 1.792-49.056 0-74.88 0-25.216 0-50.048 1.728-75.36 0-56.576-3.872-82.88-36.448-113.248-66.848-28.192-28.096-57.12-55.072-84.8-82.112-1.248-1.184-3.040-3.872-5.312-3.264 0.096 24.832 1.472 46.336-6.56 60.896-22.688 40.736-109.184 49.504-131.136 5.952-7.488-14.848-4.608-40.16-4.608-62.912 0-40 0-80.384 0-120.416 0-8.736 1.6-18.88 0-24.544-1.056-3.52-7.712-7.936-11.296-11.264-21.312-19.584-39.36-35.2-59.584-53.664-7.104-6.496-15.776-18.208-25.152-20.544-14.304-3.584-30.624-1.312-44.352-1.312-15.264 0-31.168 0.416-46.336 0-51.712-1.44-89.312-40.064-99.328-84.736-12.832-57.312 21.856-103.104 57.6-121.824 21.824-11.328 44.48-13.216 78.784-13.216 31.2 0 63.040-0.16 92 0 59.52 0.32 89.632 33.408 120.48 64.192 15.328 15.392 31.424 30.752 47.008 45.024 65.856 60.288 122.624 121.12 188.096 181.472 22.944 21.024 47.456 45.44 70.24 68.192 7.424 7.456 17.568 17.888 25.824 20.512 7.040 2.24 17.888 2.016 26.496 2.016 26.624 0 55.744-2.432 80.736 0 28.16 2.72 50.048 21.696 64.192 37.728 16.064 18.112 28.32 42.944 27.712 74.112-0.48 32.768-13.408 54.88-29.696 72.16zM855.36 616.096c-16.576-5.056-41.952-1.344-62.112-1.344-25.344 0-50.336 1.376-67.552-6.624-18.112-8.448-35.808-29.216-50.24-43.712-94.432-94.4-191.552-182.88-286.176-277.408-7.136-7.104-15.744-15.552-23.84-23.232-8.512-8.032-16.96-16.672-25.152-21.184-20.8-11.456-48.352-9.216-76.8-9.216-27.52 0-58.464-2.752-86.048 0-25.024 2.432-44.8 19.84-50.272 43.616-7.104 30.88 11.072 56.768 37.696 62.208 36.864 7.648 95.936-6.56 125.76 8 19.712 9.632 35.456 29.504 50.304 44.384 46.304 46.304 100.032 95.424 144.32 139.776 53.696 53.504 112.64 107.136 168.32 162.816 15.264 15.296 24 24.416 50.208 26.528 17.984 1.408 46.784 0.672 72.896 0.672 27.872 0 64.992 4.736 84-4.672 16.384-8.064 29.728-23.712 31.168-44.992 1.536-23.296-14.080-48.864-36.48-55.616zM656.928 376.096c-2.624-2.688-7.392-5.28-6.432-7.776 44.992 1.44 90.432 2.4 135.488 3.872-122.24-107.68-247.168-212.736-369.536-320.256 11.712-10.336 21.44-22.624 33.728-32.448 108 89.312 216.8 181.184 324.768 269.728 15.328 12.608 30.624 25.376 46.656 36.896-2.144-46.368-4.288-92.896-6.464-139.328 16.384 18.752 32.64 40.128 49.312 60.928 5.504 6.848 13.568 13.856 16.8 20.704 2.464 5.312 3.552 14.272 5.184 21.376 11.744 52.96 23.68 103.52 35.008 154.976-68.992-3.168-137.376-6.976-206.112-10.368-19.296-18.336-39.776-39.744-58.4-58.304z" />
<glyph unicode="&#xe637;" glyph-name="xia-futi" d="M601.76 737.216c38.816-0.832 65.504 31.936 60.256 68.16-3.008 20.608-13.568 33.152-27.744 41.696-5.696 3.392-13.504 6.112-22.528 7.264-39.296 4.992-67.904-23.040-68.224-57.568-0.32-37.12 29.408-59.008 58.24-59.552zM948.032 312.128c-10.016 44.64-47.648 83.328-99.328 84.736-15.168 0.416-31.040 0-46.304 0-13.76 0-30.048-2.272-44.384 1.312-9.376 2.368-18.016 14.048-25.12 20.544-20.256 18.432-38.24 34.080-59.552 53.664-3.616 3.328-10.24 7.744-11.328 11.264-1.568 5.696 0 15.808 0 24.544 0 40.032 0 80.416 0 120.416 0 22.752 2.88 48.064-4.608 62.912-21.984 43.52-108.48 34.784-131.136-5.952-8.128-14.56-6.752-36.064-6.624-60.896-2.272-0.608-4.096 2.080-5.312 3.264-27.68 27.040-56.64 54.016-84.8 82.112-30.4 30.4-56.704 62.944-113.248 66.848-25.312 1.728-50.176 0-75.392 0-25.824 0-51.712 1.792-74.88 0-28.192-2.144-52.064-18.112-67.52-34.4-16.288-17.248-29.248-39.392-29.696-72.16-0.576-31.168 11.68-56 27.712-74.112 14.176-16.032 36.032-35.008 64.192-37.728 25.024-2.432 54.112 0 80.768 0 8.576 0 19.456 0.192 26.496-2.016 8.224-2.624 18.4-13.056 25.824-20.512 22.752-22.752 47.264-47.136 70.208-68.192 65.536-60.352 122.272-121.184 188.128-181.472 15.616-14.272 31.68-29.632 47.008-45.024 30.88-30.784 60.992-63.872 120.544-64.192 28.896-0.16 60.768 0 92 0 34.272 0 56.896 1.888 78.784 13.216 35.648 18.72 70.4 64.512 57.568 121.824zM892.288 276.928c-5.504-23.744-25.216-41.152-50.272-43.584-27.552-2.752-58.496 0-86.016 0-28.416 0-55.968-2.272-76.768 9.216-8.224 4.512-16.64 13.152-25.184 21.184-8.064 7.68-16.672 16.128-23.808 23.232-94.624 94.528-191.712 183.008-286.176 277.408-14.432 14.496-32.128 35.264-50.24 43.712-17.216 8.032-42.208 6.624-67.552 6.624-20.16 0-45.536-3.712-62.112 1.344-22.4 6.752-38.048 32.32-36.48 55.584 1.376 21.248 14.72 36.928 31.072 44.992 19.008 9.408 56.128 4.672 84.032 4.672 26.112 0 54.912 0.704 72.896-0.672 26.272-2.080 34.976-11.2 50.144-26.528 55.68-55.648 114.624-109.312 168.288-162.816 44.352-44.352 98.048-93.472 144.352-139.808 14.88-14.88 30.592-34.752 50.272-44.32 29.888-14.56 88.928-0.384 125.824-8 26.592-5.408 44.8-31.328 37.728-62.24zM466.432 247.904c-3.072 2.144-6.464 6.432-8.768 5.024 9.184-44.128 18.016-88.704 27.232-132.736-127.2 101.824-252.224 206.656-379.264 308.64-8.128-13.312-18.592-24.96-26.080-38.816 106.592-90.944 215.872-182.208 321.728-273.312 15.072-12.896 30.304-25.76 44.448-39.52-46.080-5.856-92.288-11.872-138.4-17.792 21.312-12.8 45.184-25.12 68.544-37.952 7.712-4.288 16-11.072 23.328-13.088 5.632-1.472 14.656-1.024 21.952-1.376 54.176-2.4 106.016-5.44 158.624-7.712-15.040 67.392-30.592 134.080-45.792 201.312-21.44 15.744-46.048 32.224-67.552 47.328z" />
<glyph unicode="&#xe638;" glyph-name="shang-louti" d="M407.456 908.416c1.44 0 2.848 0 4.288 0 11.52 0 19.456-2.144 27.072-6.144 18.496-9.696 36-35.424 19.040-61.472-17.12-26.4-68.064-26.656-85.472 0-20.64 31.648 7.008 64.448 35.072 67.616zM499.104 722.080c31.456-16.512 65.248-30.752 99.52-46.72 9.12-4.256 25.056-12.672 19.68-27.68-2.24-6.208-14.624-10.208-21.536-10.464-19.328-0.672-34.080 9.536-50.4 16-16.512 6.592-32.672 12.512-47.904 18.464-3.232-26.528-3.2-56.256-4.928-84.256 15.52-7.68 34.784-16.8 55.328-26.432 30.464-14.304 69.6-20.16 72.512-60.256 1.056-14.336-0.448-27.008-0.608-43.68-0.16-12.736 3.392-31.84-0.64-41.824-2.944-7.232-11.744-8.288-16-15.36 16.16-1.664 35.2-0.48 51.68-1.856 1.824 28.096 1.12 58.72 2.432 87.328 36.96-0.32 75.296-2.432 113.152-2.432 38.272 0 76.064-3.232 112.544-2.496 4.96 0.096 9.888 1.216 14.752 2.496-3.136-26.176-1.568-57.024-3.072-84.864-54.496 0.864-108.224 2.464-162.976 3.072-4.064-23.008-2.4-51.68-3.072-78.048-55.296-2.208-109.376 2.112-164.8 1.824-4.064-23.168-1.664-52.8-3.072-78.688-52.192 1.856-106.176 1.984-158.592 3.68-3.936-24.384-2.272-54.336-3.072-81.824-82.624 1.664-164.96 3.552-247.84 4.928 0.256 26.016 1.504 51.008 1.312 77.408 55.68-1.504 112.288-2.048 167.872-3.68 3.008 24.064-0.256 54.368 3.68 77.504 54.272-0.672 107.712-2.176 161.728-3.104 2.976 25.12-0.352 56.544 3.68 80.608 26.144-0.704 53.024-0.704 78.656-1.888-5.184 8.096-15.168 8.832-19.040 17.216-9.376 20.32 6.080 55.008 0.64 78.688-13.92 11.040-30.912 17.6-47.328 25.856-16.192 8.128-32.768 16.416-49.216 24 0.512-47.968-3.616-100.864-3.072-152.512 0.192-19.52 3.104-41.696-6.144-51.68-15.328-16.512-54.336-6.72-62.080 9.888-7.168 15.296-1.248 40.096-1.248 62.688 0 48.256 3.296 107.52 3.072 153.76-6.912 7.584-19.552 12.32-27.072 23.36-17.056 24.992-6.048 75.712-6.144 110.688-0.064 23.328-6.048 61.472 3.712 80.544 10.272 20.032 42.208 28.96 67.040 30.144 22.368 1.056 45.344-4.416 57.824-14.144 18.784-14.688 18.368-42.048 19.040-76.256zM874.752 225.184c-28.096-54.528-57.984-107.232-86.080-161.728-29.152-16.736-56.992-34.848-86.080-51.648 17.376 40.832 34.4 82.016 51.616 123.008-142.592-49.472-287.84-101.536-430.976-152.512-6.976 12.896-12.992 26.784-19.072 40.608 144.992 54.016 288.8 109.152 433.44 163.552-40.768 13.952-81.44 28-122.976 41.184 26.368 9.92 55.072 17.696 81.792 27.072 4.096 1.44 16.32-1.792 24-3.072 50.816-8.512 104.704-18.048 154.336-26.464z" />
<glyph unicode="&#xe639;" glyph-name="xia-louti" d="M588.96 928.032c2.336 0 4.704 0 7.072 0 21.664-2.624 37.984-16.256 42.368-35.296 12.672-55.136-58.848-73.6-85.92-38.24-10.4 13.568-11.328 34.336-2.944 48.8 7.456 12.864 19.104 22.272 39.424 24.736zM654.88 665.664c1.664-91.616-2.528-195.744-0.64-292.96 0.32-14.208 2.56-27.968-1.184-38.24-8.256-22.72-54.016-36.288-69.376-10.624-7.936 13.248-5.824 36.992-5.28 57.696 0.544 23.008-0.448 42.88 0 63.52-24.608-10.464-47.936-20.64-71.776-32.352-7.744-3.808-15.392-8.992-23.552-11.168-21.76-5.856-47.584 2.752-48.8 20.576-1.632 23.68 32 35.584 49.408 44.704 24.128 12.64 43.456 23.808 68.832 35.904 14.912 7.072 33.312 12.768 28.256 32.928-2.016 7.904-13.376 14.24-21.184 20.608-22.88 18.528-45.44 38.464-51.168 73.536-4.096 25.024 0 54.144 1.184 78.816 0.64 13.12 0.672 27.040 1.184 40.576 0.416 11.2-0.32 30.496 3.52 40.032 4.352 10.784 15.264 18.464 25.248 24.096 9.92 5.568 22.496 10.624 41.184 10.624 16.8 0 34.016-4.992 47.648-12.384 11.392-6.176 27.648-17.152 31.776-30.016 3.936-12.512-3.296-27.168-1.216-40.576 0.864-5.664 8.96-11.936 14.72-17.664 16.576-16.544 30.816-29.664 48.256-47.040 9.696-9.696 20.064-21.12 31.744-31.776 10.048-9.184 28.064-21.568 27.072-36.48-1.504-23.328-40.256-21.952-55.872-11.744-12.992 8.48-22.624 24-33.504 36.48-5.44 6.112-10.944 12.32-16.512 18.24-5.408 5.728-11.712 12.384-19.968 14.688zM368.384 365.664c49.696-1.152 106.272-0.384 158.816-0.608 3.36-21.92 0.288-50.304 2.944-72.896 51.136-0.96 103.392 2.048 155.296 2.304 3.136-22.336 0.32-50.72 2.944-73.536 51.808 0 107.2 1.472 159.424 2.944 3.68-21.44 0.384-49.824 2.304-72.928-78.496-1.504-156.736-3.232-235.296-4.704-2.656 24 0.544 53.856-2.912 77.056-49.6 0.544-101.184-2.016-151.776-2.336-2.592 23.52 0.48 52.64-3.52 74.72-51.072 0.288-103.808-2.88-157.664-1.824 0.096 25.824 0.32 51.68-2.336 74.752-24.32 0.608-51.552-1.024-77.088-1.152-9.376 23.36-15.456 50.016-20.576 77.632 40.544 0.256 83.808 2.112 125.888 2.368 12.576 0.032 25.376-0.448 36.448 0.608 5.632 0.512 4.96 0 5.312-7.68 1.088-22.464 0.288-54.464 1.792-74.72zM516.64 200.32c26.944-14.368 54.848-32.928 82.368-48.768 27.296-51.968 55.936-102.528 82.944-154.752-48.448-7.84-98.432-16.64-147.648-25.28-7.072-1.248-14.944-3.712-20.608-3.52-6.016 0.224-13.408 4.416-20 6.464-20.224 6.432-40.096 12.736-60.608 18.848 38.080 14.272 77.984 26.752 117.088 40-137.088 52.928-275.968 104.096-414.144 155.904 7.232 14.72 17.632 31.328 27.648 45.28 133.536-50.784 267.712-100.96 401.792-151.2-14.496 38.496-32.544 78.496-48.832 117.024z" />
<glyph unicode="&#xe63a;" glyph-name="xia-dianti" d="M513.92 646.944c0.672 0 1.376 0 2.016 0 63.904 41.184 130.080 80 193.728 121.408 0 30.080 0 60.192 0 90.304-45.248-24.992-94.784-59.776-140.48-84.288 2.208 53.6 0.704 110.944 3.008 164.544-36.704 1.056-74.4 1.184-112.448 1.024-0.832-52.992 1.536-111.488 0.992-167.584-4.288-0.64-11.008 4.256-17.056 8.032-40 24.8-83.424 52.896-124.448 77.28-0.64-29.792 1.312-62.176-0.992-90.304 64.32-41.024 131.296-79.392 195.68-120.416zM817.856 639.52c-47.296 3.424-98.464 0-150.752 0-96.832 0-201.76 0-299.616 0-51.52 0-102.56 3.104-149.824 0-47.36-3.104-83.456-34.304-91.008-78.272 0-179.872 0-359.616 0-539.552 9.152-46.88 40.416-70.24 86.24-78.24 202.88 0 405.792 0 608.704 0 45.824 8 77.152 31.36 86.304 78.24 0 179.936 0 359.68 0 539.552-7.424 42.912-42.208 74.848-90.048 78.272zM524.928-12.512c-5.056 0-10.112 0-15.168 0 0 60.256 0 120.448 0 180.672 0.096 6.24 10.592 1.504 15.168 2.944 0-61.152 0-122.368 0-183.616zM858.592 19.68c-12.928-44.64-87.712-32.128-143.168-32.128-38.848 0-73.44 0-110.912-0.064 0 108.256 0 236.992 0 353.12 0 3.872-0.544 7.072 0 12 0.672 6.112 1.184 10.112 10.4 7.008 6.208-2.016 4.096-1.696 4.736-8 2.688-25.76 0-60.32 0-84.128 0-34.816 0-64.448 0-96.384 24.192 0.672 46.56 6.048 53.088 25.12 4.192 12.064 1.952 33.888 1.952 52.128 0 38.304 0 69.952 0 108.256 0 18.176 2.464 40.32-0.928 53.12-10.72 39.648-105.856 27.136-154.528 27.136-25.984 0-58.752 0-90.144 0-29.376 0-59.104-2.432-67.296-24.064-4.096-10.816-1.92-34.88-1.92-53.184 0-38.88 0-70.112 0-109.184 0-17.696-2.752-39.872 0.928-53.184 5.568-20.064 30.144-25.632 56.864-26.048 1.696 52.448 0.96 114.816 0.96 171.424 0 4.672-3.712 19.264 6.656 16.992 11.104 3.008 7.552-11.2 7.552-16 0-116 0-240.512 0-356.128-34.528 0-72.096 0-109.024 0-37.376 0-75.072-3.328-107.136 0.992-18.176 2.432-35.296 13.056-40.736 29.12-4.896 14.432-1.92 42.304-1.92 67.264 0 137.952 0 274.176 0 414.176 0 22.72-2.624 55.424 2.848 68.224 15.712 36.928 70.656 28.096 121.344 28.096 155.648 0 308.256 0 466.464 0 45.76 0 82.336 3.232 93.856-30.080 5.088-14.528 1.92-44.736 1.92-67.232 0-139.616 0-270.976 0-412.16 0.064-22.4 2.976-49.632-1.856-66.208zM502.88 567.296c-20.224-2.976-34.688-14.528-42.176-26.112-0.672-1.024-9.056-15.296-9.024-31.104 0.064-40.224 38.080-62.976 73.344-58.176 32 4.416 56.064 36.064 50.144 69.248-4.992 28.096-33.76 51.808-72.288 46.144z" />
<glyph unicode="&#xe63e;" glyph-name="upload-fold" d="M960 21h-896q-27 0-45.5 18.5t-18.5 45.5v726q0 27 18.5 45.5t45.5 18.5h316q13 0 25-5t20-15l68-68q19-19 45-19h422q27 0 45.5-18.5t18.5-45.5v-619q0-27-18.5-45.5t-45.5-18.5M540 606q-13 13-32 13-9 0-17.5-3.5t-14.5-9.5l-179-192q-13-14-12-30.5t13-28.5 31-12h98v-128q0-17 12.5-29.5t29.5-12.5h86q17 0 29.5 12.5t12.5 29.5v128h90q17 0 29 12.5t13 29-10 29.5l-179 192z" />
<glyph unicode="&#xe644;" glyph-name="anquan" d="M810 543h-54v109q0 66-32.5 122t-88.5 88.5-122.5 32.5-122-32.5-88.5-88.5-33-122v-109h-53q-22 0-38-15.5t-16-37.5v-434q0-22 16-37.5t38-15.5h594q22 0 38 15.5t16 37.5v434q0 22-16 37.5t-38 15.5M675 543h-324v109q0 44 21.5 81t59 59 81.5 22 81-22 59-59 22-81v-109z" />
<glyph unicode="&#xe645;" glyph-name="zhixing" d="M489.504 939.744c0.352 0 0.672 0 0.992 0 115.392-114.336 231.776-227.744 348.064-341.216 0-64.384 0-128.768 0-193.152-93.152 90.176-184.704 181.952-278.432 271.584-0.672-239.872 1.28-482.4-0.992-720.704-46.080 0-92.16 0-138.24 0-2.272 237.952-0.32 480.16-0.992 719.712-92.64-86.24-185.248-181.12-278.432-270.592 0 64.352 0 128.736 0 193.152 116.288 113.472 232.64 226.816 348.032 341.216z" />
<glyph unicode="&#xe646;" glyph-name="youzhuan" d="M550.432 948.512c55.552 0 111.136 0 166.688 0 98.432-104.128 196.608-208.608 295.392-312.384 0-0.352 0-0.672 0-0.992-73.216-74.592-147.104-156.992-222.56-235.52-15.968-16.64-37.152-38.432-55.904-57.952-6.496-6.752-13.504-17.44-18.944-18.944-10.848-3.008-27.744 0-40.928 0-41.44 0-79.744 0-121.76 0-1.184 5.184 6.336 9.248 10.976 14.016 68.384 69.824 138.656 148.64 204.64 218.56-201.984 0-403.904 0-605.824 0-2.336-200.608-0.32-405.536-0.992-607.808-49.888 0-99.808 0-149.696 0 0 256.128 0 512.288 0 768.48 251.872 0 503.68 0 755.488 0 4.352 0.448-2.688 4.704-3.968 5.984-69.824 76.608-142.368 150.4-212.608 226.56z" />
<glyph unicode="&#xe647;" glyph-name="zuozhuan" d="M473.6 948.512c-55.552 0-111.136 0-166.688 0-98.432-104.128-196.608-208.608-295.392-312.384 0-0.352 0-0.672 0-0.992 73.216-74.592 147.104-156.992 222.56-235.52 15.968-16.64 37.152-38.432 55.904-57.952 6.496-6.752 13.504-17.44 18.944-18.944 10.848-3.008 27.744 0 40.928 0 41.44 0 79.744 0 121.76 0 1.184 5.184-6.336 9.248-10.976 14.016-68.384 69.824-138.656 148.64-204.64 218.56 201.984 0 403.872 0 605.824 0 2.336-200.608 0.352-405.536 0.992-607.808 49.92 0 99.808 0 149.728 0 0 256.128 0 512.288 0 768.48-251.872 0-503.68 0-755.488 0-4.384 0.448 2.656 4.736 3.936 5.984 69.824 76.608 142.368 150.4 212.608 226.56z" />
<glyph unicode="&#xe648;" glyph-name="zuohouzhuan" d="M426.464 933.312c134.656 0 269.312 0 403.936 0 98.4-14.080 154.688-70.304 168.704-168.704 0-106.56 0-213.056 0-319.584-4.48-65.28-95.776-84.416-130.976-31.744-16.352 24.512-10.944 70.176-10.944 113.152 0 78.016 0 164.384 0 241.152-12.8 29.344-37.44 30.752-81.376 30.752-77.056 0-157.44 0-234.24 0-30.144 0-66.176 4.864-92.288-0.96-17.408-3.904-33.76-20.288-38.72-35.744-6.080-19.040-1.792-46.304-2.976-71.456-7.936-170.368-3.2-339.776-8.928-511.008 17.408 12.768 33.728 28.512 50.624 43.648 47.968 43.136 96 88.352 144.928 131.968 1.088 0.992 2.304 5.728 4.928 3.008 0-44.064 0-85.056 0-130.016 0-13.888 2.88-30.72 0-42.656-2.304-9.632-22.304-23.84-31.712-32.768-76.096-72.192-158.848-144.896-232.288-216.352-0.32 0-0.64 0-0.992 0-88.288 82.048-176.512 164.224-264.96 246.112 0 59.232 0 118.432 0 177.664 58.656-54.176 120.352-111.968 178.624-165.76 3.040-2.816 6.784-8.96 11.936-7.936-0.48 146.656-2.016 307.2-2.016 456.448 0 41.344-1.184 79.936 0 114.112 1.184 34.208 11.072 64.704 25.824 89.312 28.224 47.2 73.792 78.144 142.912 87.36z" />
<glyph unicode="&#xe649;" glyph-name="youhouzhuan" d="M641.792 933.312c-134.656 0-269.28 0-403.904 0-98.432-14.112-154.688-70.336-168.736-168.704 0-106.56 0-213.056 0-319.584 4.48-65.28 95.776-84.416 130.976-31.744 16.352 24.512 10.944 70.176 10.944 113.152 0 78.016 0 164.384 0 241.152 12.8 29.344 37.44 30.752 81.376 30.752 77.056 0 157.44 0 234.24 0 30.112 0 66.176 4.864 92.288-0.96 17.408-3.904 33.76-20.288 38.72-35.744 6.080-19.040 1.792-46.304 2.976-71.456 7.904-170.368 3.2-339.776 8.896-511.008-17.408 12.768-33.728 28.512-50.592 43.648-47.968 43.136-96 88.352-144.928 131.968-1.088 0.992-2.304 5.728-4.928 3.008 0-44.064 0-85.056 0-130.016 0-13.888-2.88-30.72 0-42.656 2.304-9.632 22.304-23.84 31.712-32.768 76.096-72.192 158.848-144.896 232.288-216.352 0.352 0 0.672 0 0.992 0 88.288 82.048 176.512 164.224 264.96 246.112 0 59.232 0 118.432 0 177.664-58.656-54.176-120.352-111.968-178.624-165.76-3.072-2.816-6.816-8.96-11.936-7.936 0.48 146.656 2.016 307.2 2.016 456.448 0 41.344 1.184 79.936 0 114.112-1.184 34.208-11.072 64.704-25.824 89.312-28.224 47.2-73.824 78.144-142.912 87.36z" />
<glyph unicode="&#xe64a;" glyph-name="youqianzhuan" d="M395.488 901.696c15.904 0 31.808 0 47.712 0 142.784-2.56 287.872-3.040 431.552-4.8 1.184-121.888 1.024-245.056 3.104-366.144 0-24.672 0-49.344 0-73.984-60.512-54.24-118.816-115.52-178.4-167.264 1.056 119.776 2.016 239.68 3.104 359.456-3.52 0.8-6.432-3.136-8.32-4.832-42.912-38.912-79.392-91.744-113.056-140.288-109.536-158.112-209.76-331.2-264.512-539.2-14.88 0-29.76 0-44.608 0-42.816 1.632-88.032 1.056-131.744 1.92 0 2.24 0 4.512 0 6.752 3.872 37.408 16.032 79.936 28 117.216 12.16 37.888 25.664 73.568 39.392 106.688 58.016 139.744 127.072 262.688 209.568 376.768 37.696 52.16 82.336 105.28 130.688 146.080 2.624 2.208 8.352 2.944 7.264 7.68-110.528-1.344-221.312-2.56-331.936-3.84 54.336 58.24 115.296 118.688 172.192 177.792z" />
<glyph unicode="&#xe64c;" glyph-name="zuoqianzhuan" d="M622.624 901.696c-15.904 0-31.808 0-47.712 0-142.784-2.56-287.84-3.040-431.52-4.8-1.216-121.888-1.056-245.088-3.104-366.176 0-24.672 0-49.344 0-73.984 60.512-54.24 118.816-115.52 178.4-167.264-1.056 119.776-2.016 239.68-3.104 359.456 3.52 0.8 6.432-3.136 8.32-4.832 42.912-38.912 79.392-91.744 113.056-140.288 109.536-158.112 209.76-331.2 264.512-539.2 14.88 0 29.76 0 44.608 0 42.848 1.632 88.064 1.056 131.744 1.92 0 2.24 0 4.512 0 6.752-3.84 37.408-16.032 79.936-28 117.216-12.16 37.888-25.664 73.568-39.392 106.688-58.016 139.744-127.104 262.688-209.568 376.768-37.696 52.16-82.336 105.28-130.688 146.080-2.624 2.208-8.352 2.944-7.264 7.68 110.528-1.344 221.28-2.56 331.904-3.84-54.304 58.272-115.296 118.72-172.192 177.824z" />
<glyph unicode="&#xe64f;" glyph-name="qiangxinhao" d="M1012 546.304c-30.4-35.808-65.792-66.72-96.736-102.048-94.24 82.944-223.808 164-407.328 157.632-178.656-6.144-301.312-79.52-393.952-170.976-35.168 31.36-69.504 63.616-101.824 97.888 116.256 114.016 265.12 201.728 486.592 212 115.36 5.344 219.52-22.144 299.296-55.552 85.824-35.968 156.064-85.216 213.952-138.944zM846.368 375.328c-21.248-22.528-46.112-49.216-70.944-74.048-4.256-4.224-20.928-24.608-23.648-24.672-2.272-0.096-17.312 15.296-22.688 19.52-51.008 40.736-124.832 76.192-216 73.024-96.32-3.328-168.224-39.648-220.096-90.464-2.912-2.912-9.856-10.272-10.272-10.304-3.968-0.16-19.904 18.88-24.704 23.68-23.584 23.584-52.672 49.312-74.080 69.952 73.056 75.712 173.664 135.424 316.832 142.048 153.664 7.168 264.992-55.808 345.6-128.736zM514.080 271.424c56.832 2.688 106.88-40.8 100.832-105.984-2.016-21.792-12.864-41.632-24.672-54.528-53.472-58.336-174.592-28.16-168.64 71.040 1.664 27.968 13.952 46.816 28.768 61.664 14.976 14.976 33.376 26.368 63.712 27.808z" />
<glyph unicode="&#xe650;" glyph-name="zhongxinhao" d="M846.368 375.328c-21.248-22.528-46.112-49.216-70.944-74.048-4.256-4.224-20.928-24.608-23.648-24.672-2.272-0.096-17.312 15.296-22.688 19.52-51.008 40.736-124.832 76.192-216 73.024-96.32-3.328-168.224-39.648-220.096-90.464-2.912-2.912-9.856-10.272-10.272-10.304-3.968-0.16-19.904 18.88-24.704 23.68-23.584 23.584-52.672 49.312-74.080 69.952 73.056 75.712 173.664 135.424 316.832 142.048 153.664 7.168 264.992-55.808 345.6-128.736zM514.080 271.424c56.832 2.688 106.88-40.8 100.832-105.984-2.016-21.792-12.864-41.632-24.672-54.528-53.472-58.336-174.592-28.16-168.64 71.040 1.664 27.968 13.952 46.816 28.768 61.664 14.976 14.976 33.376 26.368 63.712 27.808z" />
<glyph unicode="&#xe651;" glyph-name="ruoxinhao" d="M514.080 271.424c56.832 2.688 106.88-40.8 100.832-105.984-2.016-21.792-12.864-41.632-24.672-54.528-53.472-58.336-174.592-28.16-168.64 71.040 1.664 27.968 13.952 46.816 28.768 61.664 14.976 14.976 33.376 26.368 63.712 27.808z" />
<glyph unicode="&#xe652;" glyph-name="close" d="M495.712 939.488c158.528 7.584 276.352-60.48 357.792-135.648 43.456-40.16 77.408-86.944 103.712-142.912 26.464-56.16 44.864-121.28 48.256-197.536 7.072-159.968-60.224-274.208-135.584-355.968-79.168-85.76-190.56-145.984-339.488-152.896-158.72-7.296-274.272 58.048-356.832 134.752-81.984 76.224-146.88 188.256-153.888 338.592-3.712 79.904 15.136 151.808 38.24 208.48 46.848 114.944 128.384 200.576 239.36 253.984 55.936 26.944 120.192 45.472 198.432 49.152zM310.016 649.12c-10.048-10.048-28.896-23.584-30.944-36.448-2.592-16.384 7.072-22.528 16.384-31.84 39.328-39.328 74.048-74.080 113.792-113.792 7.232-7.264 19.264-15.744 19.104-19.168 0-0.16-7.264-7.168-9.088-9.088-38.016-37.952-68.096-68.064-104.672-104.64-10.464-10.496-33.184-25.344-35.488-40.992-3.328-22.368 20.896-35.456 33.632-48.224 11.616-11.584 22.976-31.456 40.992-30.976 16.992 0.576 32.224 24.064 42.816 34.656 32.448 32.448 63.36 63.424 96.48 96.48 5.216 5.12 17.856 19.2 20 19.072 2.368-0.096 15.328-15.328 19.168-19.072 34.752-34.784 62.88-63.808 96.448-97.472 9.856-9.792 27.552-33.92 43.744-33.664 17.536 0.352 29.216 20.16 40.928 31.904 12.256 12.192 31.584 23.488 32.768 40.96 1.28 19.040-22.944 34.848-34.592 46.432-33.088 33.088-63.744 63.776-95.616 95.616-1.952 1.984-19.2 16.704-19.072 20 0-0.48 6.624 6.656 9.152 9.12 37.472 37.536 69.088 68.256 105.536 104.672 13.408 13.408 33.056 27.392 34.592 41.92 2.176 20.48-21.536 34.24-32.768 45.504-11.392 11.424-23.136 31.2-40 31.84-18.336 0.704-34.72-22.912-45.504-33.696-33.12-33.088-62.304-63.232-95.552-96.48-3.552-3.552-17.248-19.232-20.032-19.104-2.688 0.096-13.728 14.592-18.24 19.104-33.568 33.632-63.584 63.616-95.616 95.616-10.816 10.848-29.504 37.504-50.048 33.632-11.904-2.24-27.872-21.44-38.304-31.872z" />
<glyph unicode="&#xe653;" glyph-name="buxing1" d="M767.392 365.472c-17.632-2.848-35.456 4.672-53.152 22.336-19.584 19.584-18.624 44.832-17.792 67.104 1.216 31.456 2.432 61.376-46.016 89.92v-179.52c3.584-12.992 24.192-82.944 74.72-167.168 65.44-109.056 101.344-185.952 78.304-232-9.536-19.136-26.88-30.144-47.488-30.144-36.64 0-76.288 33.888-103.488 88.32-31.36 62.944-88.608 190.368-109.024 236.192-54.848-21.376-112.864-47.616-126.048-59.008-4.352-40.32-32.448-265.504-96.384-265.504-58.176 0-58.176 58.368-58.176 96.96 0 135.936 14.528 216.576 44.448 246.496 32.768 32.768 89.728 64.544 112.064 76.416l9.408 75.2c-19.136-19.616-43.232-38.944-70.080-47.904-3.808-1.28-93.952-30.816-115.552 8.896-15.36 28.256 16.704 59.104 46.368 82.784 73.664 59.008 124.96 118.56 143.776 141.664-6.016 14.912-7.808 37.408 6.112 65.28 7.552 15.104 15.168 27.488 21.824 37.216-24.736 23.040-40.224 55.872-40.224 92.224 0 69.536 56.544 126.080 126.016 126.080 69.408 0 125.824-56.576 125.824-126.080 0-38.656-17.504-73.344-44.928-96.48 38.016-21.568 106.112-64.224 135.584-108.48 41.568-62.368 42.016-198.944 42.016-204.736 0-3.040-0.672-5.952-2.016-8.704-1.184-2.4-12.384-23.52-36.096-27.36zM687.136 41.664c22.944-45.952 51.776-66.848 68.832-66.848 3.936 0 8.992 0.992 12.8 8.672 18.144 36.352-48.416 147.328-76.832 194.72-30.304 50.592-50.304 95.872-62.656 128.384l-50.432-30.336c20.32-45.632 77.216-172.352 108.288-234.592zM313.728 444.608c-22.048-17.664-30.464-28.288-33.664-33.664 11.392-2.24 38.528-0.32 66.4 8.96 44.992 15.008 83.776 72.928 92.032 85.952l0.768 57.792c-27.072-30.432-69.92-74.592-125.536-119.040zM634.112 811.232c0 48.224-39.008 87.328-87.136 87.328-48.192 0-87.232-39.072-87.232-87.328 0-48.16 39.040-87.296 87.232-87.296 48.16 0 87.136 39.104 87.136 87.296zM731.2 584.736c-31.328 47.008-121.504 96.192-142.88 107.424-12.96-4.544-26.848-7.008-41.312-7.008-19.2 0-37.376 4.32-53.664 12.032-5.76-8.384-12.512-19.328-19.264-32.8-12.288-24.576-3.552-35.808-3.648-35.808 4.832-4.768 6.592-11.552 5.248-17.856v-108.032c0.448-2.112 0.576-4.32 0.32-6.592l-19.392-155.168c-0.8-6.432-4.8-12.064-10.592-14.944-0.736-0.384-75.168-37.824-111.328-73.984-9.92-9.952-33.088-51.232-33.088-219.072 0-48.16 4.256-57.44 17.696-58.112 25.696 18.592 59.584 198.784 59.872 232.736 0 12.256 0 32.8 167.68 95.744 1.056 0.384 2.112 0.64 3.232 0.832l66.208 39.808c-2.56 8.352-3.808 13.28-4 14.048-0.352 1.504-0.608 3.136-0.608 4.672v213.344c0 6.56 3.296 12.64 8.704 16.224 5.408 3.552 12.32 4.192 18.272 1.6 100.32-43.008 98.016-101.696 96.544-140.48-0.736-19.52-0.8-30.944 6.4-38.208 11.584-11.552 17.824-11.68 19.424-11.424 2.112 0.288 4.16 2.016 5.6 3.584-0.608 40.512-7.776 136-35.424 177.44z" />
<glyph unicode="&#xe654;" glyph-name="luxian" d="M532.928 927.52c2.368 0 4.768 0 7.136 0 120.544-174.72 245.504-349.92 364.32-524.928-79.808 0-159.648 0-239.424 0 0 18.016 0 36.032 0 54.080 45.376 0 90.656 0 136.064 0-85.472 126.464-176.864 253.76-264.128 380.992-89.28-126.208-177.536-253.536-265.632-380.992 88.096-1.504 176.032-3.2 264.864-3.968 0.704-75.36 2.016-150.144 2.368-225.92-133.92-0.128-272.512 0.064-408.832 0-4.576-87.968-5.344-179.68-7.936-269.6-2.4 0-4.768 0-7.168 0-14.624 1.824-32.832 0-46.912 2.336 2.816 107.232 5.12 214.944 8.736 321.344 135.744 0 271.488 0 407.232 0 0.64 40.416-1.12 78.432-0.8 118.496-105.088 1.248-209.536 3.136-314.144 4.736 120.896 175.072 242.816 348.992 364.256 523.424z" />
<glyph unicode="&#xe655;" glyph-name="zuji" d="M420.256 932.768c5.472 0 10.944 0 16.416 0 41.376-5.952 70.496-52.544 47.232-94.336-17.504-31.392-60.64-40.864-90.304-21.536-51.168 33.376-26.368 111.52 26.656 115.872zM685.408 921.248c44.704 6.592 80.704-22.336 81.664-66.912 0.96-48.032-38.592-71.104-69.184-71.456-45.952-0.576-76.192 39.328-70.336 81.664 4.064 29.472 27.68 52.288 57.856 56.704zM125.984 755.52c0 4.768 0 9.568 0 14.368 3.84 21.12 17.984 37.824 32.8 44.064 43.392 18.4 95.040-23.744 73.824-73.824-20.544-48.512-102.944-39.456-106.624 15.392zM987.744 709.056c0-6.4 0-12.8 0-19.232-7.744-45.216-44.16-78.912-94.112-73.792-40.544 4.16-74.496 37.952-73.824 84.48 0.736 49.376 40.192 88.928 96.288 82.336 39.072-4.576 61.728-32.16 71.648-73.792zM455.168-64c-90.24 9.312-142.624 33.312-170.528 77.856-23.232 37.088-31.36 89.984-40 145.984-2.528 16.384-5.056 32.864-8.032 49.056-6.144 33.792-13.472 65.12-22.4 95.776-8.96 30.72-17.696 64.128-17.696 104.32 0 77.28 17.344 137.76 54.528 190.304 44.64 63.072 136 130.464 258.624 130.464 29.504 0 59.36-4.064 88.8-12.096 59.52-16.256 106.944-49.248 144.96-100.8 33.28-45.088 63.040-85.376 62.784-182.24-0.096-29.312-8.736-55.104-15.712-75.808-18.144-54.080-36.8-91.968-60.448-122.88-5.952-7.712-12.608-14.592-19.296-21.44-8.32-8.576-16.16-16.64-22.528-26.336-10.304-15.776-19.328-34.56-28.096-52.704-3.456-7.232-6.944-14.432-10.496-21.504-12.128-24.16-25.376-49.888-40.224-74.272-25.664-42.176-57.568-94.688-131.904-103.52-0.288-0.128-0.544-0.16-0.8-0.16h-21.536zM507.776 684.576c-78.656-3.744-133.312-24.128-182.72-68.128-48.576-43.232-75.712-97.248-83.008-165.088-6.72-62.72 6.048-109.088 19.584-158.144 5.088-18.368 10.144-36.8 14.176-56.192 4.256-20.576 7.424-43.136 10.464-64.928 7.296-52 14.784-105.728 37.728-138.848 12.672-18.272 31.008-29.76 63.264-39.552 27.744-8.448 55.136-13.088 77.088-13.088v0c15.488 0 28.48 2.24 38.528 6.656 34.848 15.328 59.2 55.008 83.136 97.792 6.88 12.288 13.152 24.8 19.392 37.216 4.064 8.16 8.128 16.256 12.32 24.16 4.64 8.768 8.736 17.824 12.8 26.752 5.568 12.16 11.328 24.736 18.112 36.096 7.168 11.936 16.608 21.312 25.76 30.336 5.152 5.12 10.272 10.176 14.816 15.584 20.64 24.768 36.576 54.016 53.28 97.664 7.136 18.656 15.168 39.584 18.112 58.176 7.552 47.616-10.112 98.816-18.080 118.624-12.192 30.4-28.576 56.608-50.016 80.096-43.648 47.744-106.624 75.136-172.704 75.136-0.032-0.064-8-0.16-12.032-0.32zM476.704-57.6c-7.2 0-14.4 0-21.568 0-77.056 7.968-135.040 26.848-165.12 74.848-29.312 46.784-34.336 122.496-47.168 192.768-6.016 32.928-13.376 64.896-22.56 96.416-9.184 31.648-17.408 64.16-17.408 102.528 0 79.488 18.432 137.28 53.344 186.624 60.32 85.216 190.24 156.896 340.512 115.872 60.672-16.576 106.496-50.944 141.504-98.432 31.296-42.4 61.792-81.792 61.536-178.432-0.096-27.232-7.584-50.624-15.36-73.824-15.584-46.432-33.728-87.36-59.456-120.992-13.152-17.152-30.112-29.984-42.048-48.192-14.624-22.336-26.176-49.472-38.976-74.848-12.768-25.472-25.664-50.272-39.968-73.856-28.064-46.048-58.688-92.32-127.264-100.48zM320.8 621.216c-46.528-41.408-77.184-95.264-85.12-169.184-9.44-87.968 19.2-145.888 33.856-216.352 14.336-69.056 15.456-157.408 49.184-206.112 14.88-21.472 36.512-32.832 66.656-42.016 37.536-11.392 88.256-20.128 120.032-6.144 38.208 16.768 64.512 61.792 86.144 100.512 11.392 20.384 21.216 41.472 31.776 61.536 11.040 20.864 19.264 43.328 30.784 62.528 10.752 17.952 27.488 30.176 39.968 45.12 23.776 28.576 39.712 61.248 54.336 99.456 7.2 18.752 15.392 40.16 18.464 59.456 6.848 43.136-6.016 91.040-18.464 122.016-13.088 32.64-30.368 59.168-51.264 82.016-40.512 44.288-106.432 80.864-189.76 76.928-83.424-4-138.784-27.2-186.592-69.76z" />
<glyph unicode="&#xe656;" glyph-name="kanditu" d="M734.112 450.88c45.76 0 91.488 0 137.248 0 53.376-154.976 101.12-315.488 152.64-472.288-332.576 0-665.184 0-997.76 0 41.344 156.384 80.896 314.528 120.864 472.288 49.856 0 99.712 0 149.568 0-9.408 29.408-25.248 53.792-36.864 80.896-11.584 27.072-25.152 56.544-27.68 91.168-6.368 87.776 33.248 157.408 76.864 204.896 45.376 49.44 113.344 84.736 195.648 89.12 128.16 6.816 220-70.528 263.296-151.616 23.616-44.384 42.624-109.024 27.616-169.024-13.184-52.704-41.536-97.216-61.44-145.44zM408.352 844.224c-26.56-13.696-47.744-30.016-66.592-50.176-35.648-38.208-68.736-92.64-62.496-170.048 1.952-24 11.712-46.752 19.456-66.56 21.984-56.32 50.944-106.144 79.904-153.696 27.424-45.024 60.992-94.752 96.288-136.256 10.272-12.096 25.664-36.384 42.016-35.84 14.72 0.512 30.976 24.032 41.984 36.864 13.504 15.776 24.32 29.728 34.816 44.064 56.672 77.472 106.624 157.152 142.432 252 7.616 20.256 15.744 40.064 17.376 62.496 5.824 80.096-34.624 140.128-70.688 176.192-39.616 39.616-102.752 71.36-181.312 65.568-34.816-2.624-66.976-11.040-93.184-24.608zM83.616 22.656c292.96 0.672 588.672-1.376 879.936 0.992-41.632 127.072-81.76 255.584-122.944 383.168-43.68 0-87.36 0-131.136 0-50.176-76.448-96.672-158.208-160.8-222.304-8.8-8.832-20.256-22.656-32.768-22.528-10.4 0.096-23.424 12.992-32.768 21.504-11.2 10.144-20.16 21.184-26.656 28.672-43.616 50.464-75.488 103.392-112.672 161.888-6.784 10.656-15.648 30.4-22.56 32.768-8 2.752-22.4 0-33.824 0-35.968 0-70.88 0-104.48 0-35.072-126.080-65.952-256.384-99.328-384.16zM502.624 749.984c45.376 4.608 79.904-12.864 101.376-35.84 31.936-34.112 42.88-105.568 9.248-150.592-23.008-30.816-63.872-50.176-106.56-47.136-60.672 4.352-113.632 54.464-108.608 124.992 1.6 22.24 10.496 45.312 17.408 56.32 15.328 24.256 44.064 47.904 87.136 52.256zM452.416 667.008c-7.584-14.816-8.448-31.616-7.168-43.040 7.232-64.48 97.824-84.608 133.216-26.624 17.632 28.928 6.304 71.232-11.328 88.096-11.936 11.36-31.936 20.192-55.296 18.432-32.512-2.4-50.912-20.224-59.424-36.864z" />
<glyph unicode="&#xe657;" glyph-name="locate" d="M512.928 659.488c99.84 0.352 169.824-57.504 201.632-128.672 11.424-25.696 19.648-57.792 19.712-90.016 0.352-69.28-28.288-119.264-64.768-155.68-36.256-36.256-86.88-65.152-153.888-65.728-65.664-0.544-120.448 27.776-156.576 63.904-37.088 37.056-64.576 85.248-64.8 154.784-0.256 68.128 26.688 119.424 62.976 155.712 35.488 35.52 83.296 65.472 155.712 65.696zM16.128 413.792c0 17.44 0 34.816 0 52.256 22.816 2.048 49.472 0.32 73.824 0.896 10.016 119.552 58.112 208.288 124.192 273.568 65.376 64.64 154.272 115.040 272.704 122.4 0.576 24.64-1.216 51.552 0.928 74.688 8.8 0 16.992 0 27.872 0 5.984 0 22.56 2.368 25.248-0.896 3.168-3.872 0-27.2 0-36 0-14.144 0-25.12 0-36.896 118.112-10.816 207.904-57.696 272.672-123.328 64.704-65.568 113.632-153.376 122.368-273.568 23.744-0.64 49.824 1.184 72-0.896 0-17.728 0-35.392 0-53.088-23.968 0-48 0-72 0-9.28-119.328-57.408-207.744-122.368-272.736-65.024-64.928-153.408-113.056-272.672-122.368 0-23.392 0-46.816 0-70.176-18.016 0-36 0-54.016 0 0 23.36 0 46.784 0 70.176-120.832 8.16-207.232 58.496-273.6 122.368-66.368 63.968-111.904 155.136-123.296 272.736-23.904 0.512-54.464-1.12-73.856 0.864zM413.024 798.112c-73.344-20.608-128.704-59.168-171.904-106.208-56.416-61.472-105.728-150.304-98.080-270.912 7.2-113.504 52.608-192.864 117.92-252.864 63.008-57.952 154.368-104.384 270.88-98.112 113.28 6.048 194.112 53.216 252.864 117.888 57.632 63.456 105.824 147.84 99.936 270.944-5.28 110.784-56.864 196.8-117.888 252.928-62.016 56.96-152.768 105.344-271.84 98.976-26.752-1.472-56.608-5.536-81.888-12.64z" />
</font>
</defs>
</svg>
