<?xml version="1.0" standalone="no"?><!DOCTYPE svg PUBLIC "-//W3C//DTD SVG 1.1//EN" "http://www.w3.org/Graphics/SVG/1.1/DTD/svg11.dtd"><svg class="icon" width="200px" height="200.00px" viewBox="0 0 1024 1024" version="1.1" xmlns="http://www.w3.org/2000/svg"><path d="M332.8 268.8l-230.4 492.8h76.8l64-121.6h211.2l51.2 121.6h83.2L364.8 268.8h-32z m-57.6 300.8l76.8-166.4 70.4 166.4H275.2zM761.6 550.4c32-6.4 57.6-25.6 76.8-51.2 19.2-25.6 32-57.6 32-89.6 0-44.8-12.8-83.2-44.8-108.8-32-25.6-76.8-38.4-140.8-38.4H595.2v492.8h76.8V556.8h12.8l140.8 198.4h89.6l-153.6-204.8z m-89.6-57.6V332.8h25.6c70.4 0 102.4 25.6 102.4 76.8 0 51.2-32 83.2-102.4 83.2h-25.6z" fill="#FFF" /></svg>