<svg width="65" height="65" viewBox="0 0 65 65" fill="none" xmlns="http://www.w3.org/2000/svg">
<path fill-rule="evenodd" clip-rule="evenodd" d="M32.5 65C50.4493 65 65 50.4493 65 32.5C65 14.5507 50.4493 0 32.5 0C14.5507 0 0 14.5507 0 32.5C0 50.4493 14.5507 65 32.5 65ZM35.8333 32.3971L48.487 40.2193C48.7475 40.3803 48.9624 40.6051 49.1115 40.8726C49.2606 41.14 49.3389 41.4411 49.3389 41.7472C49.3389 42.0534 49.2606 42.3545 49.1115 42.6219C48.9624 42.8893 48.7475 43.1142 48.487 43.2751L33.4938 52.544C33.4901 52.5462 33.4863 52.5481 33.4824 52.5499C33.4786 52.5517 33.4748 52.5536 33.4711 52.5558C33.4106 52.592 33.3482 52.6253 33.2835 52.6544L33.2621 52.6646C33.1943 52.6938 33.1242 52.7187 33.0522 52.7395C33.0329 52.7453 33.0134 52.7494 32.9942 52.7546C32.9418 52.768 32.8889 52.779 32.8355 52.7875C32.8277 52.7887 32.8199 52.7899 32.8121 52.7912C32.7965 52.7937 32.781 52.7962 32.7654 52.7981C32.7023 52.8058 32.6383 52.8102 32.5737 52.8112C32.5663 52.8112 32.5586 52.8128 32.551 52.8128C32.5446 52.8128 32.5382 52.8115 32.5318 52.8115C32.4681 52.8109 32.4053 52.8067 32.3432 52.7997C32.3311 52.7983 32.3189 52.7963 32.3067 52.7942C32.2993 52.793 32.292 52.7918 32.2847 52.7907C32.2335 52.7834 32.1832 52.7741 32.1339 52.7622C32.0632 52.7452 31.9935 52.7239 31.9253 52.6986C31.9212 52.6971 31.9172 52.6957 31.9131 52.6942C31.9012 52.69 31.8892 52.6857 31.8773 52.681C31.8133 52.655 31.7508 52.6265 31.6907 52.5939C31.6833 52.5901 31.6769 52.5853 31.6699 52.5814C31.6183 52.5526 31.5687 52.5212 31.5204 52.4873C31.5026 52.4747 31.4853 52.4614 31.4678 52.448L31.459 52.4412C31.4238 52.4144 31.3898 52.3865 31.3569 52.3571C31.3516 52.3523 31.3463 52.3476 31.341 52.343C31.327 52.3305 31.3131 52.3181 31.2996 52.3049C31.2516 52.2582 31.2052 52.2098 31.1626 52.158L31.1476 52.1378C31.1072 52.0879 31.0704 52.0354 31.0359 51.9813C31.0339 51.9784 31.0317 51.9755 31.0295 51.9727C31.0265 51.9688 31.0234 51.9648 31.0208 51.9605C31.0164 51.9533 31.0125 51.9459 31.0086 51.9384C31.0057 51.933 31.0028 51.9275 30.9997 51.9221C30.9824 51.8924 30.9655 51.8623 30.9498 51.8312C30.9238 51.7793 30.9 51.7263 30.8784 51.6725C30.846 51.5887 30.8195 51.5027 30.799 51.4152C30.7719 51.2962 30.7571 51.1748 30.7549 51.0529C30.7547 51.0473 30.7543 51.0419 30.7539 51.0364C30.7534 51.0297 30.7529 51.023 30.7529 51.0161V35.7012L18.5006 43.2754C18.0954 43.526 17.6072 43.6052 17.1435 43.4958C16.6797 43.3864 16.2785 43.0973 16.028 42.692C15.7774 42.2867 15.6981 41.7985 15.8076 41.3348C15.917 40.8711 16.2061 40.4699 16.6114 40.2193L29.2644 32.3974L16.6114 24.5755C16.4107 24.4514 16.2365 24.2891 16.0985 24.0977C15.9606 23.9063 15.8617 23.6896 15.8076 23.46C15.7534 23.2304 15.745 22.9923 15.7828 22.7595C15.8206 22.5266 15.9039 22.3035 16.028 22.1028C16.152 21.9021 16.3144 21.7279 16.5058 21.59C16.6972 21.452 16.9138 21.3532 17.1435 21.299C17.3731 21.2448 17.6111 21.2364 17.844 21.2742C18.0768 21.312 18.3 21.3953 18.5006 21.5194L30.7526 29.0942V13.7791C30.7526 13.7721 30.7531 13.7654 30.7536 13.7587C30.754 13.7533 30.7544 13.7478 30.7545 13.7423C30.7552 13.7032 30.7571 13.6645 30.7603 13.6258C30.7622 13.6037 30.7648 13.5819 30.7673 13.5601C30.7717 13.5243 30.7771 13.4885 30.7837 13.4529C30.7943 13.3966 30.8074 13.3407 30.823 13.2856C30.8472 13.1995 30.8782 13.1154 30.9158 13.0343C30.9413 12.9793 30.9692 12.9254 30.9997 12.873C31.0028 12.8675 31.0058 12.862 31.0087 12.8565C31.0126 12.8491 31.0164 12.8417 31.0208 12.8346C31.0237 12.83 31.0268 12.8256 31.0299 12.8213C31.0331 12.817 31.0362 12.8127 31.0391 12.808C31.057 12.7802 31.0759 12.7533 31.0951 12.7267C31.1117 12.7037 31.1284 12.681 31.146 12.6589C31.1612 12.6397 31.1771 12.6216 31.1932 12.6033L31.1997 12.5959L31.2058 12.589C31.2252 12.5669 31.2448 12.5447 31.2653 12.5238C31.2789 12.51 31.2929 12.4969 31.3069 12.4837C31.3098 12.481 31.3127 12.4782 31.3156 12.4755C31.341 12.4508 31.3673 12.4269 31.3943 12.4038C31.411 12.3897 31.4286 12.3766 31.4458 12.3632L31.4532 12.3575C31.4789 12.3376 31.5044 12.3179 31.531 12.2995C31.5448 12.2901 31.559 12.2813 31.5732 12.2725C31.5802 12.268 31.5873 12.2636 31.5943 12.2592C31.6209 12.2425 31.6475 12.2256 31.675 12.2102C31.6984 12.1969 31.7226 12.1852 31.7468 12.1734L31.7566 12.1686C31.7616 12.1661 31.7666 12.1636 31.7716 12.1612C31.7899 12.1521 31.8082 12.143 31.827 12.1347C31.8545 12.1226 31.8828 12.112 31.9111 12.1014L31.923 12.0969C31.931 12.0941 31.9388 12.0911 31.9467 12.0881C31.9602 12.083 31.9736 12.078 31.9874 12.0735C32.0208 12.0628 32.0545 12.0531 32.0885 12.0444C32.0937 12.043 32.0989 12.0416 32.1041 12.0402C32.1215 12.0355 32.1388 12.0308 32.1563 12.0268C32.1882 12.02 32.2202 12.014 32.2524 12.0089C32.2574 12.0081 32.2624 12.0072 32.2674 12.0064C32.2895 12.0027 32.3115 11.999 32.3336 11.9964C32.3619 11.9933 32.3901 11.9908 32.4185 11.989C32.451 11.9864 32.4837 11.9847 32.5164 11.9839C32.5218 11.9839 32.5273 11.9835 32.5327 11.9831C32.5382 11.9827 32.5436 11.9823 32.549 11.9823C32.5572 11.9823 32.5652 11.9829 32.5732 11.9835C32.5799 11.9839 32.5867 11.9844 32.5935 11.9846C32.6543 11.9855 32.715 11.99 32.7753 11.998C32.957 12.021 33.1341 12.0716 33.3005 12.1481L33.3588 12.1763C33.3935 12.1941 33.4278 12.213 33.4615 12.2329C33.4662 12.2356 33.471 12.2381 33.4758 12.2407C33.4819 12.2438 33.4879 12.247 33.4938 12.2505L48.487 21.519C48.7475 21.68 48.9624 21.9049 49.1115 22.1723C49.2606 22.4397 49.3389 22.7408 49.3389 23.0469C49.3389 23.3531 49.2606 23.6542 49.1115 23.9216C48.9624 24.189 48.7475 24.4139 48.487 24.5748L35.8333 32.3971ZM44.1261 23.0476L34.3458 17.0013V29.0936L44.1261 23.0476ZM44.1261 41.7472L34.3458 35.7012V47.7932L44.1261 41.7472Z" fill="#3E71EC"/>
</svg>
