<svg width="312" height="66" viewBox="0 0 312 66" fill="none" xmlns="http://www.w3.org/2000/svg">
<path d="M0 45.5522V66H15.2119V56.131C14.2185 28.7272 31 15.3368 42.8418 15.3368H94.6866C97.1701 15.3368 97.5841 17.4128 97.4806 18.4508V28.1044C97.4806 36.0764 104.517 39.7302 108.036 40.5607H200.239C210.173 40.5607 213.692 32.2565 214.209 28.1044V21.2535C213.961 16.5201 216.796 15.3368 218.245 15.3368H251.463C286 15.3368 296.788 33.5 296.788 47.1002L297 65H312V56.131C312 11.5376 281.783 0.191534 266.675 0.0926714H55.8786C13.0387 -1.77565 0 24.9913 0 45.5522Z" fill="#3973EE"/>
</svg>
